G75*
%MOIN*%
%OFA0B0*%
%FSLAX25Y25*%
%IPPOS*%
%LPD*%
%AMOC8*
5,1,8,0,0,1.08239X$1,22.5*
%
%ADD10C,0.00600*%
%ADD11C,0.00200*%
%ADD12C,0.00512*%
%ADD13C,0.00300*%
%ADD14C,0.00000*%
%ADD15C,0.00800*%
%ADD16R,0.00787X0.03346*%
%ADD17C,0.00500*%
%ADD18C,0.00100*%
%ADD19C,0.01000*%
%ADD20R,0.05906X0.07874*%
%ADD21R,0.02000X0.02000*%
%ADD22C,0.00060*%
%ADD23R,0.01378X0.03543*%
D10*
X0058138Y0072552D02*
X0058138Y0074914D01*
X0062862Y0074914D02*
X0062862Y0072552D01*
X0078895Y0082318D02*
X0080565Y0083989D01*
X0083905Y0080648D02*
X0082235Y0078978D01*
X0095470Y0105741D02*
X0095470Y0108103D01*
X0100194Y0108103D02*
X0100194Y0105741D01*
X0107056Y0114094D02*
X0107056Y0118094D01*
X0112856Y0124694D02*
X0115956Y0124694D01*
X0115956Y0127794D01*
X0122556Y0143394D02*
X0126456Y0143394D01*
X0136177Y0145182D02*
X0138539Y0145182D01*
X0138618Y0140615D02*
X0136256Y0140615D01*
X0136256Y0135891D02*
X0138618Y0135891D01*
X0138579Y0134296D02*
X0136217Y0134296D01*
X0136217Y0129572D02*
X0138579Y0129572D01*
X0138539Y0149906D02*
X0136177Y0149906D01*
X0136413Y0153213D02*
X0138776Y0153213D01*
X0138776Y0157938D02*
X0136413Y0157938D01*
X0134434Y0166333D02*
X0132072Y0166333D01*
X0132072Y0171057D02*
X0134434Y0171057D01*
X0121599Y0171054D02*
X0119237Y0171054D01*
X0119237Y0166330D02*
X0121599Y0166330D01*
X0115956Y0164094D02*
X0112856Y0164094D01*
X0115956Y0164094D02*
X0115956Y0160994D01*
X0109156Y0170694D02*
X0109156Y0174594D01*
X0103579Y0180969D02*
X0103579Y0183331D01*
X0098854Y0183331D02*
X0098854Y0180969D01*
X0095705Y0180930D02*
X0095705Y0183292D01*
X0090980Y0183292D02*
X0090980Y0180930D01*
X0083697Y0181166D02*
X0083697Y0183528D01*
X0078972Y0183528D02*
X0078972Y0181166D01*
X0075547Y0175694D02*
X0075547Y0173331D01*
X0070823Y0173331D02*
X0070823Y0175694D01*
X0068461Y0175654D02*
X0068461Y0173292D01*
X0063736Y0173292D02*
X0063736Y0175654D01*
X0057362Y0171414D02*
X0057362Y0169052D01*
X0052638Y0169052D02*
X0052638Y0171414D01*
X0068579Y0183528D02*
X0070941Y0183528D01*
X0070941Y0188253D02*
X0068579Y0188253D01*
X0089556Y0174794D02*
X0089556Y0170694D01*
X0079656Y0164094D02*
X0076556Y0164094D01*
X0076556Y0160994D01*
X0077956Y0160494D02*
X0080156Y0162694D01*
X0060232Y0152111D02*
X0057870Y0152111D01*
X0057870Y0147387D02*
X0060232Y0147387D01*
X0060272Y0146206D02*
X0057909Y0146206D01*
X0057909Y0141481D02*
X0060272Y0141481D01*
X0060311Y0139906D02*
X0057949Y0139906D01*
X0057949Y0135182D02*
X0060311Y0135182D01*
X0066056Y0141394D02*
X0070056Y0141394D01*
X0076556Y0127794D02*
X0076556Y0124694D01*
X0079656Y0124694D01*
X0087356Y0118094D02*
X0087356Y0114194D01*
X0085783Y0110064D02*
X0085783Y0107702D01*
X0081059Y0107702D02*
X0081059Y0110064D01*
X0175389Y0177465D02*
X0175392Y0177707D01*
X0175401Y0177948D01*
X0175416Y0178189D01*
X0175436Y0178430D01*
X0175463Y0178670D01*
X0175496Y0178909D01*
X0175534Y0179148D01*
X0175578Y0179385D01*
X0175628Y0179622D01*
X0175684Y0179857D01*
X0175746Y0180090D01*
X0175813Y0180322D01*
X0175886Y0180553D01*
X0175964Y0180781D01*
X0176049Y0181007D01*
X0176138Y0181232D01*
X0176233Y0181454D01*
X0176334Y0181673D01*
X0176440Y0181891D01*
X0176551Y0182105D01*
X0176668Y0182317D01*
X0176789Y0182525D01*
X0176916Y0182731D01*
X0177048Y0182933D01*
X0177185Y0183133D01*
X0177326Y0183328D01*
X0177472Y0183521D01*
X0177623Y0183709D01*
X0177779Y0183894D01*
X0177939Y0184075D01*
X0178103Y0184252D01*
X0178272Y0184425D01*
X0178445Y0184594D01*
X0178622Y0184758D01*
X0178803Y0184918D01*
X0178988Y0185074D01*
X0179176Y0185225D01*
X0179369Y0185371D01*
X0179564Y0185512D01*
X0179764Y0185649D01*
X0179966Y0185781D01*
X0180172Y0185908D01*
X0180380Y0186029D01*
X0180592Y0186146D01*
X0180806Y0186257D01*
X0181024Y0186363D01*
X0181243Y0186464D01*
X0181465Y0186559D01*
X0181690Y0186648D01*
X0181916Y0186733D01*
X0182144Y0186811D01*
X0182375Y0186884D01*
X0182607Y0186951D01*
X0182840Y0187013D01*
X0183075Y0187069D01*
X0183312Y0187119D01*
X0183549Y0187163D01*
X0183788Y0187201D01*
X0184027Y0187234D01*
X0184267Y0187261D01*
X0184508Y0187281D01*
X0184749Y0187296D01*
X0184990Y0187305D01*
X0185232Y0187308D01*
X0185474Y0187305D01*
X0185715Y0187296D01*
X0185956Y0187281D01*
X0186197Y0187261D01*
X0186437Y0187234D01*
X0186676Y0187201D01*
X0186915Y0187163D01*
X0187152Y0187119D01*
X0187389Y0187069D01*
X0187624Y0187013D01*
X0187857Y0186951D01*
X0188089Y0186884D01*
X0188320Y0186811D01*
X0188548Y0186733D01*
X0188774Y0186648D01*
X0188999Y0186559D01*
X0189221Y0186464D01*
X0189440Y0186363D01*
X0189658Y0186257D01*
X0189872Y0186146D01*
X0190084Y0186029D01*
X0190292Y0185908D01*
X0190498Y0185781D01*
X0190700Y0185649D01*
X0190900Y0185512D01*
X0191095Y0185371D01*
X0191288Y0185225D01*
X0191476Y0185074D01*
X0191661Y0184918D01*
X0191842Y0184758D01*
X0192019Y0184594D01*
X0192192Y0184425D01*
X0192361Y0184252D01*
X0192525Y0184075D01*
X0192685Y0183894D01*
X0192841Y0183709D01*
X0192992Y0183521D01*
X0193138Y0183328D01*
X0193279Y0183133D01*
X0193416Y0182933D01*
X0193548Y0182731D01*
X0193675Y0182525D01*
X0193796Y0182317D01*
X0193913Y0182105D01*
X0194024Y0181891D01*
X0194130Y0181673D01*
X0194231Y0181454D01*
X0194326Y0181232D01*
X0194415Y0181007D01*
X0194500Y0180781D01*
X0194578Y0180553D01*
X0194651Y0180322D01*
X0194718Y0180090D01*
X0194780Y0179857D01*
X0194836Y0179622D01*
X0194886Y0179385D01*
X0194930Y0179148D01*
X0194968Y0178909D01*
X0195001Y0178670D01*
X0195028Y0178430D01*
X0195048Y0178189D01*
X0195063Y0177948D01*
X0195072Y0177707D01*
X0195075Y0177465D01*
X0195072Y0177223D01*
X0195063Y0176982D01*
X0195048Y0176741D01*
X0195028Y0176500D01*
X0195001Y0176260D01*
X0194968Y0176021D01*
X0194930Y0175782D01*
X0194886Y0175545D01*
X0194836Y0175308D01*
X0194780Y0175073D01*
X0194718Y0174840D01*
X0194651Y0174608D01*
X0194578Y0174377D01*
X0194500Y0174149D01*
X0194415Y0173923D01*
X0194326Y0173698D01*
X0194231Y0173476D01*
X0194130Y0173257D01*
X0194024Y0173039D01*
X0193913Y0172825D01*
X0193796Y0172613D01*
X0193675Y0172405D01*
X0193548Y0172199D01*
X0193416Y0171997D01*
X0193279Y0171797D01*
X0193138Y0171602D01*
X0192992Y0171409D01*
X0192841Y0171221D01*
X0192685Y0171036D01*
X0192525Y0170855D01*
X0192361Y0170678D01*
X0192192Y0170505D01*
X0192019Y0170336D01*
X0191842Y0170172D01*
X0191661Y0170012D01*
X0191476Y0169856D01*
X0191288Y0169705D01*
X0191095Y0169559D01*
X0190900Y0169418D01*
X0190700Y0169281D01*
X0190498Y0169149D01*
X0190292Y0169022D01*
X0190084Y0168901D01*
X0189872Y0168784D01*
X0189658Y0168673D01*
X0189440Y0168567D01*
X0189221Y0168466D01*
X0188999Y0168371D01*
X0188774Y0168282D01*
X0188548Y0168197D01*
X0188320Y0168119D01*
X0188089Y0168046D01*
X0187857Y0167979D01*
X0187624Y0167917D01*
X0187389Y0167861D01*
X0187152Y0167811D01*
X0186915Y0167767D01*
X0186676Y0167729D01*
X0186437Y0167696D01*
X0186197Y0167669D01*
X0185956Y0167649D01*
X0185715Y0167634D01*
X0185474Y0167625D01*
X0185232Y0167622D01*
X0184990Y0167625D01*
X0184749Y0167634D01*
X0184508Y0167649D01*
X0184267Y0167669D01*
X0184027Y0167696D01*
X0183788Y0167729D01*
X0183549Y0167767D01*
X0183312Y0167811D01*
X0183075Y0167861D01*
X0182840Y0167917D01*
X0182607Y0167979D01*
X0182375Y0168046D01*
X0182144Y0168119D01*
X0181916Y0168197D01*
X0181690Y0168282D01*
X0181465Y0168371D01*
X0181243Y0168466D01*
X0181024Y0168567D01*
X0180806Y0168673D01*
X0180592Y0168784D01*
X0180380Y0168901D01*
X0180172Y0169022D01*
X0179966Y0169149D01*
X0179764Y0169281D01*
X0179564Y0169418D01*
X0179369Y0169559D01*
X0179176Y0169705D01*
X0178988Y0169856D01*
X0178803Y0170012D01*
X0178622Y0170172D01*
X0178445Y0170336D01*
X0178272Y0170505D01*
X0178103Y0170678D01*
X0177939Y0170855D01*
X0177779Y0171036D01*
X0177623Y0171221D01*
X0177472Y0171409D01*
X0177326Y0171602D01*
X0177185Y0171797D01*
X0177048Y0171997D01*
X0176916Y0172199D01*
X0176789Y0172405D01*
X0176668Y0172613D01*
X0176551Y0172825D01*
X0176440Y0173039D01*
X0176334Y0173257D01*
X0176233Y0173476D01*
X0176138Y0173698D01*
X0176049Y0173923D01*
X0175964Y0174149D01*
X0175886Y0174377D01*
X0175813Y0174608D01*
X0175746Y0174840D01*
X0175684Y0175073D01*
X0175628Y0175308D01*
X0175578Y0175545D01*
X0175534Y0175782D01*
X0175496Y0176021D01*
X0175463Y0176260D01*
X0175436Y0176500D01*
X0175416Y0176741D01*
X0175401Y0176982D01*
X0175392Y0177223D01*
X0175389Y0177465D01*
X0214669Y0134245D02*
X0217031Y0134245D01*
X0217031Y0129521D02*
X0214669Y0129521D01*
X0203281Y0128721D02*
X0200919Y0128721D01*
X0200919Y0133445D02*
X0203281Y0133445D01*
X0202589Y0119026D02*
X0202077Y0119026D01*
X0201959Y0119026D02*
X0220463Y0119026D01*
X0219951Y0119026D01*
X0221486Y0118002D02*
X0221486Y0100325D01*
X0220463Y0099341D02*
X0219951Y0099341D01*
X0220463Y0099341D02*
X0201959Y0099341D01*
X0202549Y0099341D01*
X0201998Y0099341D02*
X0201936Y0099343D01*
X0201875Y0099349D01*
X0201814Y0099358D01*
X0201753Y0099372D01*
X0201694Y0099389D01*
X0201636Y0099410D01*
X0201579Y0099435D01*
X0201524Y0099463D01*
X0201471Y0099494D01*
X0201420Y0099529D01*
X0201371Y0099567D01*
X0201324Y0099608D01*
X0201281Y0099651D01*
X0201240Y0099698D01*
X0201202Y0099747D01*
X0201167Y0099798D01*
X0201136Y0099851D01*
X0201108Y0099906D01*
X0201083Y0099963D01*
X0201062Y0100021D01*
X0201045Y0100080D01*
X0201031Y0100141D01*
X0201022Y0100202D01*
X0201016Y0100263D01*
X0201014Y0100325D01*
X0201014Y0118041D01*
X0204990Y0119026D02*
X0207549Y0119026D01*
X0209990Y0119026D02*
X0212549Y0119026D01*
X0214990Y0119026D02*
X0217510Y0119026D01*
X0217510Y0099341D02*
X0214990Y0099341D01*
X0212510Y0099341D02*
X0209990Y0099341D01*
X0207510Y0099341D02*
X0204990Y0099341D01*
X0196731Y0088995D02*
X0194369Y0088995D01*
X0194369Y0084271D02*
X0196731Y0084271D01*
X0196831Y0080595D02*
X0194469Y0080595D01*
X0194469Y0075871D02*
X0196831Y0075871D01*
X0249883Y0097102D02*
X0253085Y0093899D01*
X0253085Y0098170D01*
X0250950Y0100345D02*
X0249883Y0101412D01*
X0249883Y0103548D01*
X0250950Y0104615D01*
X0255221Y0100345D01*
X0256288Y0101412D01*
X0256288Y0103548D01*
X0255221Y0104615D01*
X0250950Y0104615D01*
X0250950Y0100345D02*
X0255221Y0100345D01*
X0256288Y0097102D02*
X0249883Y0097102D01*
X0255221Y0106790D02*
X0255221Y0107858D01*
X0256288Y0107858D01*
X0256288Y0106790D01*
X0255221Y0106790D01*
X0255221Y0110013D02*
X0250950Y0110013D01*
X0249883Y0111081D01*
X0249883Y0113216D01*
X0250950Y0114283D01*
X0255221Y0110013D01*
X0256288Y0111081D01*
X0256288Y0113216D01*
X0255221Y0114283D01*
X0250950Y0114283D01*
X0250950Y0116459D02*
X0249883Y0117526D01*
X0249883Y0119661D01*
X0250950Y0120729D01*
X0255221Y0116459D01*
X0256288Y0117526D01*
X0256288Y0119661D01*
X0255221Y0120729D01*
X0250950Y0120729D01*
X0252018Y0122904D02*
X0252018Y0123972D01*
X0253085Y0125039D01*
X0252018Y0126107D01*
X0253085Y0127174D01*
X0256288Y0127174D01*
X0256288Y0125039D02*
X0253085Y0125039D01*
X0252018Y0122904D02*
X0256288Y0122904D01*
X0256288Y0129350D02*
X0252018Y0129350D01*
X0252018Y0130417D01*
X0253085Y0131485D01*
X0252018Y0132552D01*
X0253085Y0133620D01*
X0256288Y0133620D01*
X0256288Y0131485D02*
X0253085Y0131485D01*
X0250950Y0116459D02*
X0255221Y0116459D01*
X0150674Y0016833D02*
X0149607Y0017900D01*
X0147471Y0017900D01*
X0146404Y0016833D01*
X0146404Y0012562D01*
X0150674Y0016833D01*
X0150674Y0012562D01*
X0149607Y0011495D01*
X0147471Y0011495D01*
X0146404Y0012562D01*
X0144229Y0012562D02*
X0143161Y0011495D01*
X0141026Y0011495D01*
X0139958Y0012562D01*
X0144229Y0016833D01*
X0144229Y0012562D01*
X0139958Y0012562D02*
X0139958Y0016833D01*
X0141026Y0017900D01*
X0143161Y0017900D01*
X0144229Y0016833D01*
X0137803Y0012562D02*
X0137803Y0011495D01*
X0136736Y0011495D01*
X0136736Y0012562D01*
X0137803Y0012562D01*
X0134560Y0016833D02*
X0130290Y0012562D01*
X0130290Y0011495D01*
X0127047Y0011495D02*
X0127047Y0017900D01*
X0123845Y0014698D01*
X0128115Y0014698D01*
X0130290Y0017900D02*
X0134560Y0017900D01*
X0134560Y0016833D01*
D11*
X0074400Y0057833D02*
X0072198Y0057833D01*
X0072198Y0058934D01*
X0072565Y0059301D01*
X0073299Y0059301D01*
X0073666Y0058934D01*
X0073666Y0057833D01*
X0074033Y0060043D02*
X0074400Y0060410D01*
X0074400Y0061144D01*
X0074033Y0061511D01*
X0072565Y0061511D01*
X0072198Y0061144D01*
X0072198Y0060410D01*
X0072565Y0060043D01*
X0074033Y0060043D01*
X0074400Y0062253D02*
X0072198Y0062253D01*
X0072198Y0063721D02*
X0074400Y0063721D01*
X0073666Y0062987D01*
X0074400Y0062253D01*
X0074400Y0064463D02*
X0072198Y0064463D01*
X0072198Y0065931D01*
X0072198Y0066673D02*
X0072198Y0067774D01*
X0072565Y0068141D01*
X0073299Y0068141D01*
X0073666Y0067774D01*
X0073666Y0066673D01*
X0073666Y0067407D02*
X0074400Y0068141D01*
X0074400Y0066673D02*
X0072198Y0066673D01*
X0073299Y0065197D02*
X0073299Y0064463D01*
X0074400Y0064463D02*
X0074400Y0065931D01*
X0067540Y0129833D02*
X0067540Y0132035D01*
X0066806Y0132035D02*
X0068274Y0132035D01*
X0066064Y0131668D02*
X0066064Y0130200D01*
X0065697Y0129833D01*
X0064963Y0129833D01*
X0064596Y0130200D01*
X0064596Y0131668D01*
X0064963Y0132035D01*
X0065697Y0132035D01*
X0066064Y0131668D01*
X0063854Y0131668D02*
X0063854Y0130200D01*
X0063487Y0129833D01*
X0062753Y0129833D01*
X0062386Y0130200D01*
X0062386Y0131668D01*
X0062753Y0132035D01*
X0063487Y0132035D01*
X0063854Y0131668D01*
X0061644Y0131668D02*
X0061644Y0131301D01*
X0061277Y0130934D01*
X0060176Y0130934D01*
X0060176Y0129833D02*
X0061277Y0129833D01*
X0061644Y0130200D01*
X0061644Y0130567D01*
X0061277Y0130934D01*
X0061644Y0131668D02*
X0061277Y0132035D01*
X0060176Y0132035D01*
X0060176Y0129833D01*
X0057227Y0129833D02*
X0056493Y0129833D01*
X0056860Y0129833D02*
X0056860Y0132035D01*
X0056493Y0132035D02*
X0057227Y0132035D01*
X0055751Y0132035D02*
X0054283Y0132035D01*
X0054283Y0129833D01*
X0053544Y0129833D02*
X0052810Y0129833D01*
X0053177Y0129833D02*
X0053177Y0132035D01*
X0052810Y0132035D02*
X0053544Y0132035D01*
X0054283Y0130934D02*
X0055017Y0130934D01*
X0052068Y0129833D02*
X0052068Y0132035D01*
X0050600Y0132035D02*
X0050600Y0129833D01*
X0051334Y0130567D01*
X0052068Y0129833D01*
X0214872Y0113573D02*
X0214874Y0113661D01*
X0214880Y0113749D01*
X0214890Y0113837D01*
X0214904Y0113925D01*
X0214921Y0114011D01*
X0214943Y0114097D01*
X0214968Y0114181D01*
X0214998Y0114265D01*
X0215030Y0114347D01*
X0215067Y0114427D01*
X0215107Y0114506D01*
X0215151Y0114583D01*
X0215198Y0114658D01*
X0215248Y0114730D01*
X0215302Y0114801D01*
X0215358Y0114868D01*
X0215418Y0114934D01*
X0215480Y0114996D01*
X0215546Y0115056D01*
X0215613Y0115112D01*
X0215684Y0115166D01*
X0215756Y0115216D01*
X0215831Y0115263D01*
X0215908Y0115307D01*
X0215987Y0115347D01*
X0216067Y0115384D01*
X0216149Y0115416D01*
X0216233Y0115446D01*
X0216317Y0115471D01*
X0216403Y0115493D01*
X0216489Y0115510D01*
X0216577Y0115524D01*
X0216665Y0115534D01*
X0216753Y0115540D01*
X0216841Y0115542D01*
X0216929Y0115540D01*
X0217017Y0115534D01*
X0217105Y0115524D01*
X0217193Y0115510D01*
X0217279Y0115493D01*
X0217365Y0115471D01*
X0217449Y0115446D01*
X0217533Y0115416D01*
X0217615Y0115384D01*
X0217695Y0115347D01*
X0217774Y0115307D01*
X0217851Y0115263D01*
X0217926Y0115216D01*
X0217998Y0115166D01*
X0218069Y0115112D01*
X0218136Y0115056D01*
X0218202Y0114996D01*
X0218264Y0114934D01*
X0218324Y0114868D01*
X0218380Y0114801D01*
X0218434Y0114730D01*
X0218484Y0114658D01*
X0218531Y0114583D01*
X0218575Y0114506D01*
X0218615Y0114427D01*
X0218652Y0114347D01*
X0218684Y0114265D01*
X0218714Y0114181D01*
X0218739Y0114097D01*
X0218761Y0114011D01*
X0218778Y0113925D01*
X0218792Y0113837D01*
X0218802Y0113749D01*
X0218808Y0113661D01*
X0218810Y0113573D01*
X0218808Y0113485D01*
X0218802Y0113397D01*
X0218792Y0113309D01*
X0218778Y0113221D01*
X0218761Y0113135D01*
X0218739Y0113049D01*
X0218714Y0112965D01*
X0218684Y0112881D01*
X0218652Y0112799D01*
X0218615Y0112719D01*
X0218575Y0112640D01*
X0218531Y0112563D01*
X0218484Y0112488D01*
X0218434Y0112416D01*
X0218380Y0112345D01*
X0218324Y0112278D01*
X0218264Y0112212D01*
X0218202Y0112150D01*
X0218136Y0112090D01*
X0218069Y0112034D01*
X0217998Y0111980D01*
X0217926Y0111930D01*
X0217851Y0111883D01*
X0217774Y0111839D01*
X0217695Y0111799D01*
X0217615Y0111762D01*
X0217533Y0111730D01*
X0217449Y0111700D01*
X0217365Y0111675D01*
X0217279Y0111653D01*
X0217193Y0111636D01*
X0217105Y0111622D01*
X0217017Y0111612D01*
X0216929Y0111606D01*
X0216841Y0111604D01*
X0216753Y0111606D01*
X0216665Y0111612D01*
X0216577Y0111622D01*
X0216489Y0111636D01*
X0216403Y0111653D01*
X0216317Y0111675D01*
X0216233Y0111700D01*
X0216149Y0111730D01*
X0216067Y0111762D01*
X0215987Y0111799D01*
X0215908Y0111839D01*
X0215831Y0111883D01*
X0215756Y0111930D01*
X0215684Y0111980D01*
X0215613Y0112034D01*
X0215546Y0112090D01*
X0215480Y0112150D01*
X0215418Y0112212D01*
X0215358Y0112278D01*
X0215302Y0112345D01*
X0215248Y0112416D01*
X0215198Y0112488D01*
X0215151Y0112563D01*
X0215107Y0112640D01*
X0215067Y0112719D01*
X0215030Y0112799D01*
X0214998Y0112881D01*
X0214968Y0112965D01*
X0214943Y0113049D01*
X0214921Y0113135D01*
X0214904Y0113221D01*
X0214890Y0113309D01*
X0214880Y0113397D01*
X0214874Y0113485D01*
X0214872Y0113573D01*
D12*
X0043500Y0035733D02*
X0043500Y0001256D01*
X0043756Y0008933D02*
X0053736Y0007909D01*
X0053736Y0007676D02*
X0043756Y0008933D01*
X0053736Y0009957D01*
X0053736Y0010190D02*
X0053736Y0007676D01*
X0053736Y0008421D02*
X0043756Y0008933D01*
X0053736Y0009445D01*
X0053736Y0010190D02*
X0043756Y0008933D01*
X0228283Y0008933D01*
X0218303Y0007909D01*
X0218303Y0007676D02*
X0228283Y0008933D01*
X0218303Y0009957D01*
X0218303Y0010190D02*
X0218303Y0007676D01*
X0218303Y0008421D02*
X0228283Y0008933D01*
X0218303Y0009445D01*
X0218303Y0010190D02*
X0228283Y0008933D01*
X0228539Y0001256D02*
X0228539Y0035733D01*
X0200980Y0035733D02*
X0266527Y0035733D01*
X0258850Y0035989D02*
X0259874Y0045969D01*
X0260107Y0045969D02*
X0258850Y0035989D01*
X0257826Y0045969D01*
X0257593Y0045969D02*
X0260107Y0045969D01*
X0259362Y0045969D02*
X0258850Y0035989D01*
X0258338Y0045969D01*
X0257593Y0045969D02*
X0258850Y0035989D01*
X0258850Y0192957D01*
X0259874Y0182977D01*
X0260107Y0182977D02*
X0258850Y0192957D01*
X0257826Y0182977D01*
X0257593Y0182977D02*
X0260107Y0182977D01*
X0259362Y0182977D02*
X0258850Y0192957D01*
X0258338Y0182977D01*
X0257593Y0182977D02*
X0258850Y0192957D01*
X0266527Y0193213D02*
X0200980Y0193213D01*
D13*
X0206081Y0177422D02*
X0205598Y0176938D01*
X0205598Y0175487D01*
X0208500Y0175487D01*
X0208500Y0176938D01*
X0208016Y0177422D01*
X0206081Y0177422D01*
X0206081Y0174475D02*
X0207049Y0174475D01*
X0207533Y0173991D01*
X0207533Y0172540D01*
X0208500Y0172540D02*
X0205598Y0172540D01*
X0205598Y0173991D01*
X0206081Y0174475D01*
X0207533Y0173508D02*
X0208500Y0174475D01*
X0208500Y0171528D02*
X0206565Y0171528D01*
X0205598Y0170561D01*
X0206565Y0169594D01*
X0208500Y0169594D01*
X0208016Y0168582D02*
X0206081Y0168582D01*
X0205598Y0168098D01*
X0205598Y0167131D01*
X0206081Y0166647D01*
X0208016Y0166647D01*
X0208500Y0167131D01*
X0208500Y0168098D01*
X0208016Y0168582D01*
X0207049Y0169594D02*
X0207049Y0171528D01*
X0207533Y0165635D02*
X0208016Y0165635D01*
X0208500Y0165152D01*
X0208500Y0163700D01*
X0205598Y0163700D01*
X0205598Y0165152D01*
X0206081Y0165635D01*
X0206565Y0165635D01*
X0207049Y0165152D01*
X0207049Y0163700D01*
X0207049Y0165152D02*
X0207533Y0165635D01*
X0210881Y0161216D02*
X0212816Y0159281D01*
X0213300Y0159764D01*
X0213300Y0160732D01*
X0212816Y0161216D01*
X0210881Y0161216D01*
X0210398Y0160732D01*
X0210398Y0159764D01*
X0210881Y0159281D01*
X0212816Y0159281D01*
X0212816Y0158291D02*
X0213300Y0158291D01*
X0213300Y0157807D01*
X0212816Y0157807D01*
X0212816Y0158291D01*
X0213300Y0156796D02*
X0213300Y0154861D01*
X0211365Y0156796D01*
X0210881Y0156796D01*
X0210398Y0156312D01*
X0210398Y0155345D01*
X0210881Y0154861D01*
X0208500Y0154861D02*
X0206565Y0154861D01*
X0205598Y0155828D01*
X0206565Y0156796D01*
X0208500Y0156796D01*
X0208500Y0157807D02*
X0205598Y0157807D01*
X0206565Y0158775D01*
X0205598Y0159742D01*
X0208500Y0159742D01*
X0207049Y0156796D02*
X0207049Y0154861D01*
X0208016Y0153849D02*
X0208500Y0153366D01*
X0208500Y0152398D01*
X0208016Y0151914D01*
X0206081Y0151914D01*
X0205598Y0152398D01*
X0205598Y0153366D01*
X0206081Y0153849D01*
X0206081Y0150903D02*
X0206565Y0150903D01*
X0207049Y0150419D01*
X0207049Y0148968D01*
X0208500Y0148968D02*
X0208500Y0150419D01*
X0208016Y0150903D01*
X0207533Y0150903D01*
X0207049Y0150419D01*
X0206081Y0150903D02*
X0205598Y0150419D01*
X0205598Y0148968D01*
X0208500Y0148968D01*
X0208500Y0147956D02*
X0208500Y0146021D01*
X0205598Y0146021D01*
X0205598Y0147956D01*
X0207049Y0146989D02*
X0207049Y0146021D01*
X0208500Y0145010D02*
X0205598Y0145010D01*
X0205598Y0143075D02*
X0208500Y0143075D01*
X0207533Y0144042D01*
X0208500Y0145010D01*
X0210398Y0145010D02*
X0212333Y0145010D01*
X0213300Y0144042D01*
X0212333Y0143075D01*
X0210398Y0143075D01*
X0210398Y0146021D02*
X0213300Y0146021D01*
X0213300Y0147956D01*
X0213300Y0148968D02*
X0210398Y0148968D01*
X0210398Y0150419D01*
X0210881Y0150903D01*
X0211849Y0150903D01*
X0212333Y0150419D01*
X0212333Y0148968D01*
X0212333Y0149935D02*
X0213300Y0150903D01*
X0215198Y0149935D02*
X0216165Y0148968D01*
X0215198Y0149935D02*
X0218100Y0149935D01*
X0218100Y0148968D02*
X0218100Y0150903D01*
X0218100Y0151914D02*
X0218100Y0153849D01*
X0218100Y0152882D02*
X0215198Y0152882D01*
X0216165Y0151914D01*
X0218100Y0154861D02*
X0215198Y0156796D01*
X0215681Y0157807D02*
X0215198Y0158291D01*
X0215198Y0159259D01*
X0215681Y0159742D01*
X0216165Y0159742D01*
X0218100Y0157807D01*
X0218100Y0159742D01*
X0217616Y0160754D02*
X0215681Y0162689D01*
X0217616Y0162689D01*
X0218100Y0162205D01*
X0218100Y0161238D01*
X0217616Y0160754D01*
X0215681Y0160754D01*
X0215198Y0161238D01*
X0215198Y0162205D01*
X0215681Y0162689D01*
X0216165Y0163700D02*
X0215198Y0164668D01*
X0218100Y0164668D01*
X0218100Y0165635D02*
X0218100Y0163700D01*
X0218100Y0166647D02*
X0217616Y0166647D01*
X0215681Y0168582D01*
X0215198Y0168582D01*
X0215198Y0166647D01*
X0215198Y0147956D02*
X0218100Y0146021D01*
X0217616Y0145010D02*
X0216649Y0145010D01*
X0216165Y0144526D01*
X0216165Y0144042D01*
X0216649Y0143075D01*
X0215198Y0143075D01*
X0215198Y0145010D01*
X0217616Y0145010D02*
X0218100Y0144526D01*
X0218100Y0143559D01*
X0217616Y0143075D01*
X0211849Y0146021D02*
X0211849Y0146989D01*
X0210398Y0147956D02*
X0210398Y0146021D01*
X0069742Y0160028D02*
X0066606Y0163164D01*
X0069742Y0160028D01*
X0068174Y0160028D02*
X0068174Y0163164D01*
X0068174Y0160028D01*
X0066606Y0160028D02*
X0069742Y0163164D01*
X0066606Y0160028D01*
X0066606Y0161596D02*
X0069742Y0161596D01*
X0066606Y0161596D01*
D14*
X0072656Y0159694D02*
X0072656Y0158594D01*
X0076556Y0158594D01*
X0076556Y0159094D01*
X0081556Y0164094D01*
X0082056Y0164094D01*
X0082056Y0167994D01*
X0080956Y0167994D01*
X0080956Y0164094D01*
X0081556Y0164094D01*
X0082956Y0164094D02*
X0082956Y0167994D01*
X0083956Y0167994D01*
X0083956Y0164094D01*
X0082956Y0164094D01*
X0084856Y0164094D02*
X0084856Y0167994D01*
X0085956Y0167994D01*
X0085956Y0164094D01*
X0084856Y0164094D01*
X0086856Y0164094D02*
X0086856Y0167994D01*
X0087956Y0167994D01*
X0087956Y0164094D01*
X0086856Y0164094D01*
X0088856Y0164094D02*
X0088856Y0167994D01*
X0089856Y0167994D01*
X0089856Y0164094D01*
X0088856Y0164094D01*
X0090756Y0164094D02*
X0090756Y0167994D01*
X0091856Y0167994D01*
X0091856Y0164094D01*
X0090756Y0164094D01*
X0092756Y0164094D02*
X0092756Y0167994D01*
X0093856Y0167994D01*
X0093856Y0164094D01*
X0092756Y0164094D01*
X0094756Y0164094D02*
X0094756Y0167994D01*
X0095756Y0167994D01*
X0095756Y0164094D01*
X0094756Y0164094D01*
X0096756Y0164094D02*
X0096756Y0167994D01*
X0097756Y0167994D01*
X0097756Y0164094D01*
X0096756Y0164094D01*
X0098656Y0164094D02*
X0098656Y0167994D01*
X0099756Y0167994D01*
X0099756Y0164094D01*
X0098656Y0164094D01*
X0100656Y0164094D02*
X0100656Y0167994D01*
X0101756Y0167994D01*
X0101756Y0164094D01*
X0100656Y0164094D01*
X0102656Y0164094D02*
X0102656Y0167994D01*
X0103656Y0167994D01*
X0103656Y0164094D01*
X0102656Y0164094D01*
X0104556Y0164094D02*
X0104556Y0167994D01*
X0105656Y0167994D01*
X0105656Y0164094D01*
X0104556Y0164094D01*
X0106556Y0164094D02*
X0106556Y0167994D01*
X0107656Y0167994D01*
X0107656Y0164094D01*
X0106556Y0164094D01*
X0108556Y0164094D02*
X0108556Y0167994D01*
X0109556Y0167994D01*
X0109556Y0164094D01*
X0108556Y0164094D01*
X0110456Y0164094D02*
X0110456Y0167994D01*
X0111556Y0167994D01*
X0111556Y0164094D01*
X0110456Y0164094D01*
X0115956Y0164094D02*
X0076556Y0164094D01*
X0076556Y0124694D01*
X0115956Y0124694D01*
X0115956Y0164094D01*
X0115956Y0159694D02*
X0119856Y0159694D01*
X0119856Y0158594D01*
X0115956Y0158594D01*
X0115956Y0159694D01*
X0115956Y0157694D02*
X0119856Y0157694D01*
X0119856Y0156694D01*
X0115956Y0156694D01*
X0115956Y0157694D01*
X0115956Y0155794D02*
X0119856Y0155794D01*
X0119856Y0154694D01*
X0115956Y0154694D01*
X0115956Y0155794D01*
X0115956Y0153794D02*
X0119856Y0153794D01*
X0119856Y0152694D01*
X0115956Y0152694D01*
X0115956Y0153794D01*
X0115956Y0151794D02*
X0119856Y0151794D01*
X0119856Y0150794D01*
X0115956Y0150794D01*
X0115956Y0151794D01*
X0115956Y0149894D02*
X0119856Y0149894D01*
X0119856Y0148794D01*
X0115956Y0148794D01*
X0115956Y0149894D01*
X0115956Y0147894D02*
X0119856Y0147894D01*
X0119856Y0146794D01*
X0115956Y0146794D01*
X0115956Y0147894D01*
X0115956Y0145894D02*
X0119856Y0145894D01*
X0119856Y0144894D01*
X0115956Y0144894D01*
X0115956Y0145894D01*
X0115956Y0143894D02*
X0119856Y0143894D01*
X0119856Y0142894D01*
X0115956Y0142894D01*
X0115956Y0143894D01*
X0115956Y0141994D02*
X0119856Y0141994D01*
X0119856Y0140894D01*
X0115956Y0140894D01*
X0115956Y0141994D01*
X0115956Y0139994D02*
X0119856Y0139994D01*
X0119856Y0138894D01*
X0115956Y0138894D01*
X0115956Y0139994D01*
X0115956Y0137994D02*
X0119856Y0137994D01*
X0119856Y0136994D01*
X0115956Y0136994D01*
X0115956Y0137994D01*
X0115956Y0136094D02*
X0119856Y0136094D01*
X0119856Y0134994D01*
X0115956Y0134994D01*
X0115956Y0136094D01*
X0115956Y0134094D02*
X0119856Y0134094D01*
X0119856Y0132994D01*
X0115956Y0132994D01*
X0115956Y0134094D01*
X0115956Y0132094D02*
X0119856Y0132094D01*
X0119856Y0131094D01*
X0115956Y0131094D01*
X0115956Y0132094D01*
X0115956Y0130194D02*
X0119856Y0130194D01*
X0119856Y0129094D01*
X0115956Y0129094D01*
X0115956Y0130194D01*
X0111556Y0124694D02*
X0111556Y0120794D01*
X0110456Y0120794D01*
X0110456Y0124694D01*
X0111556Y0124694D01*
X0109556Y0124694D02*
X0109556Y0120794D01*
X0108556Y0120794D01*
X0108556Y0124694D01*
X0109556Y0124694D01*
X0107656Y0124694D02*
X0107656Y0120794D01*
X0106556Y0120794D01*
X0106556Y0124694D01*
X0107656Y0124694D01*
X0105656Y0124694D02*
X0105656Y0120794D01*
X0104556Y0120794D01*
X0104556Y0124694D01*
X0105656Y0124694D01*
X0103656Y0124694D02*
X0103656Y0120794D01*
X0102656Y0120794D01*
X0102656Y0124694D01*
X0103656Y0124694D01*
X0101756Y0124694D02*
X0101756Y0120794D01*
X0100656Y0120794D01*
X0100656Y0124694D01*
X0101756Y0124694D01*
X0099756Y0124694D02*
X0099756Y0120794D01*
X0098656Y0120794D01*
X0098656Y0124694D01*
X0099756Y0124694D01*
X0097756Y0124694D02*
X0097756Y0120794D01*
X0096756Y0120794D01*
X0096756Y0124694D01*
X0097756Y0124694D01*
X0095756Y0124694D02*
X0095756Y0120794D01*
X0094756Y0120794D01*
X0094756Y0124694D01*
X0095756Y0124694D01*
X0093856Y0124694D02*
X0093856Y0120794D01*
X0092756Y0120794D01*
X0092756Y0124694D01*
X0093856Y0124694D01*
X0091856Y0124694D02*
X0091856Y0120794D01*
X0090756Y0120794D01*
X0090756Y0124694D01*
X0091856Y0124694D01*
X0089856Y0124694D02*
X0089856Y0120794D01*
X0088856Y0120794D01*
X0088856Y0124694D01*
X0089856Y0124694D01*
X0087956Y0124694D02*
X0087956Y0120794D01*
X0086856Y0120794D01*
X0086856Y0124694D01*
X0087956Y0124694D01*
X0085956Y0124694D02*
X0085956Y0120794D01*
X0084856Y0120794D01*
X0084856Y0124694D01*
X0085956Y0124694D01*
X0083956Y0124694D02*
X0083956Y0120794D01*
X0082956Y0120794D01*
X0082956Y0124694D01*
X0083956Y0124694D01*
X0082056Y0124694D02*
X0082056Y0120794D01*
X0080956Y0120794D01*
X0080956Y0124694D01*
X0082056Y0124694D01*
X0076556Y0129094D02*
X0072656Y0129094D01*
X0072656Y0130194D01*
X0076556Y0130194D01*
X0076556Y0129094D01*
X0076556Y0131094D02*
X0072656Y0131094D01*
X0072656Y0132094D01*
X0076556Y0132094D01*
X0076556Y0131094D01*
X0076556Y0132994D02*
X0072656Y0132994D01*
X0072656Y0134094D01*
X0076556Y0134094D01*
X0076556Y0132994D01*
X0076556Y0134994D02*
X0072656Y0134994D01*
X0072656Y0136094D01*
X0076556Y0136094D01*
X0076556Y0134994D01*
X0076556Y0136994D02*
X0072656Y0136994D01*
X0072656Y0137994D01*
X0076556Y0137994D01*
X0076556Y0136994D01*
X0076556Y0138894D02*
X0072656Y0138894D01*
X0072656Y0139994D01*
X0076556Y0139994D01*
X0076556Y0138894D01*
X0076556Y0140894D02*
X0072656Y0140894D01*
X0072656Y0141994D01*
X0076556Y0141994D01*
X0076556Y0140894D01*
X0076556Y0142894D02*
X0072656Y0142894D01*
X0072656Y0143894D01*
X0076556Y0143894D01*
X0076556Y0142894D01*
X0076556Y0144894D02*
X0072656Y0144894D01*
X0072656Y0145894D01*
X0076556Y0145894D01*
X0076556Y0144894D01*
X0076556Y0146794D02*
X0072656Y0146794D01*
X0072656Y0147894D01*
X0076556Y0147894D01*
X0076556Y0146794D01*
X0076556Y0148794D02*
X0072656Y0148794D01*
X0072656Y0149894D01*
X0076556Y0149894D01*
X0076556Y0148794D01*
X0076556Y0150794D02*
X0072656Y0150794D01*
X0072656Y0151794D01*
X0076556Y0151794D01*
X0076556Y0150794D01*
X0076556Y0152694D02*
X0072656Y0152694D01*
X0072656Y0153794D01*
X0076556Y0153794D01*
X0076556Y0152694D01*
X0076556Y0154694D02*
X0072656Y0154694D01*
X0072656Y0155794D01*
X0076556Y0155794D01*
X0076556Y0154694D01*
X0076556Y0156694D02*
X0072656Y0156694D01*
X0072656Y0157694D01*
X0076556Y0157694D01*
X0076556Y0156694D01*
X0076556Y0159094D02*
X0076556Y0159694D01*
X0072656Y0159694D01*
D15*
X0142467Y0168394D02*
X0142467Y0183394D01*
X0144967Y0185894D01*
X0149967Y0185894D01*
X0152467Y0183394D01*
X0152467Y0168394D01*
X0154967Y0165894D01*
X0159967Y0165894D01*
X0162467Y0168394D01*
X0162467Y0183394D01*
X0164967Y0185894D01*
X0169967Y0185894D01*
X0172467Y0183394D01*
X0172467Y0168394D01*
X0169967Y0165894D01*
X0164967Y0165894D01*
X0162467Y0168394D01*
X0152467Y0168394D02*
X0149967Y0165894D01*
X0144967Y0165894D01*
X0142467Y0168394D01*
X0144967Y0164576D02*
X0149967Y0164576D01*
X0175100Y0164133D02*
X0175100Y0159133D01*
X0177600Y0156633D01*
X0182600Y0156633D01*
X0185100Y0159133D01*
X0187600Y0156633D01*
X0192600Y0156633D01*
X0195100Y0159133D01*
X0195100Y0164133D01*
X0192600Y0166633D01*
X0187600Y0166633D01*
X0185100Y0164133D01*
X0182600Y0166633D01*
X0177600Y0166633D01*
X0175100Y0164133D01*
X0177600Y0156633D02*
X0182600Y0156633D01*
X0185100Y0154133D01*
X0187600Y0156633D01*
X0192600Y0156633D01*
X0195100Y0154133D01*
X0195100Y0149133D01*
X0192600Y0146633D01*
X0195100Y0144133D01*
X0195100Y0139133D01*
X0192600Y0136633D01*
X0187600Y0136633D01*
X0185100Y0139133D01*
X0182600Y0136633D01*
X0177600Y0136633D01*
X0175100Y0139133D01*
X0175100Y0144133D01*
X0177600Y0146633D01*
X0182600Y0146633D01*
X0185100Y0144133D01*
X0187600Y0146633D01*
X0192600Y0146633D01*
X0187600Y0146633D01*
X0185100Y0149133D01*
X0182600Y0146633D01*
X0177600Y0146633D01*
X0175100Y0149133D01*
X0175100Y0154133D01*
X0177600Y0156633D01*
X0162467Y0183394D02*
X0159967Y0185894D01*
X0154967Y0185894D01*
X0152467Y0183394D01*
X0134248Y0074186D02*
X0192909Y0074186D01*
X0192909Y0071430D01*
X0191728Y0071430D01*
X0191728Y0070249D01*
X0135429Y0070249D01*
X0131886Y0070249D01*
X0131886Y0068674D01*
X0131886Y0070249D02*
X0131886Y0052926D01*
X0138972Y0052926D01*
X0131886Y0052926D02*
X0131886Y0056863D01*
X0131886Y0052926D02*
X0195272Y0052926D01*
X0188185Y0052926D01*
X0195272Y0052926D02*
X0195272Y0056863D01*
X0195272Y0052926D02*
X0195272Y0070249D01*
X0195272Y0068674D01*
X0195272Y0070249D02*
X0191728Y0070249D01*
X0195075Y0070249D02*
X0132083Y0070249D01*
X0134248Y0071430D02*
X0135429Y0071430D01*
X0135429Y0070249D01*
X0134248Y0071430D02*
X0134248Y0074186D01*
X0185429Y0071430D02*
X0187004Y0071430D01*
X0186217Y0073005D01*
X0185429Y0071430D01*
X0185547Y0071666D02*
X0186886Y0071666D01*
X0186487Y0072465D02*
X0185946Y0072465D01*
X0198950Y0065083D02*
X0198950Y0060083D01*
X0201450Y0057583D01*
X0198950Y0055083D01*
X0198950Y0050083D01*
X0201450Y0047583D01*
X0198950Y0045083D01*
X0198950Y0040083D01*
X0201450Y0037583D01*
X0206450Y0037583D01*
X0208950Y0040083D01*
X0208950Y0045083D01*
X0206450Y0047583D01*
X0208950Y0050083D01*
X0208950Y0055083D01*
X0206450Y0057583D01*
X0208950Y0060083D01*
X0208950Y0065083D01*
X0206450Y0067583D01*
X0201450Y0067583D01*
X0198950Y0065083D01*
X0216050Y0065333D02*
X0216050Y0060333D01*
X0218550Y0057833D01*
X0216050Y0055333D01*
X0216050Y0050333D01*
X0218550Y0047833D01*
X0216050Y0045333D01*
X0216050Y0040333D01*
X0218550Y0037833D01*
X0223550Y0037833D01*
X0226050Y0040333D01*
X0226050Y0045333D01*
X0223550Y0047833D01*
X0226050Y0050333D01*
X0226050Y0055333D01*
X0223550Y0057833D01*
X0226050Y0060333D01*
X0226050Y0065333D01*
X0223550Y0067833D01*
X0218550Y0067833D01*
X0216050Y0065333D01*
X0079311Y0064564D02*
X0077500Y0064564D01*
X0076580Y0065784D01*
X0075689Y0064564D02*
X0077500Y0064564D01*
X0077600Y0064624D02*
X0078360Y0065784D01*
X0073000Y0047333D02*
X0068000Y0047333D01*
X0065500Y0044833D01*
X0063000Y0047333D01*
X0058000Y0047333D01*
X0055500Y0044833D01*
X0053000Y0047333D01*
X0048000Y0047333D01*
X0045500Y0044833D01*
X0045500Y0039833D01*
X0048000Y0037333D01*
X0053000Y0037333D01*
X0055500Y0039833D01*
X0058000Y0037333D01*
X0063000Y0037333D01*
X0065500Y0039833D01*
X0068000Y0037333D01*
X0073000Y0037333D01*
X0075500Y0039833D01*
X0075500Y0044833D01*
X0073000Y0047333D01*
D16*
X0140941Y0051056D03*
X0142909Y0051056D03*
X0144878Y0051056D03*
X0146846Y0051056D03*
X0148815Y0051056D03*
X0150783Y0051056D03*
X0152752Y0051056D03*
X0154720Y0051056D03*
X0156689Y0051056D03*
X0158657Y0051056D03*
X0160626Y0051056D03*
X0162594Y0051056D03*
X0164563Y0051056D03*
X0166531Y0051056D03*
X0168500Y0051056D03*
X0170469Y0051056D03*
X0172437Y0051056D03*
X0174406Y0051056D03*
X0176374Y0051056D03*
X0178343Y0051056D03*
X0180311Y0051056D03*
X0182280Y0051056D03*
X0184248Y0051056D03*
X0186217Y0051056D03*
D17*
X0175390Y0074580D02*
X0175390Y0100170D01*
X0181295Y0100170D02*
X0181295Y0135603D01*
X0145862Y0135603D01*
X0145862Y0100170D01*
X0181295Y0100170D01*
X0151768Y0100170D02*
X0151768Y0074580D01*
X0137543Y0174113D02*
X0113920Y0174113D01*
X0113920Y0187892D01*
X0137543Y0187892D01*
X0137543Y0174113D01*
D18*
X0135580Y0165397D02*
X0134829Y0164646D01*
X0135830Y0164646D01*
X0135580Y0163895D02*
X0135580Y0165397D01*
X0134357Y0165146D02*
X0134107Y0165397D01*
X0133606Y0165397D01*
X0133356Y0165146D01*
X0133356Y0164145D01*
X0133606Y0163895D01*
X0134107Y0163895D01*
X0134357Y0164145D01*
X0134895Y0160377D02*
X0134644Y0160127D01*
X0134644Y0159126D01*
X0134895Y0158876D01*
X0135395Y0158876D01*
X0135645Y0159126D01*
X0136118Y0158876D02*
X0137119Y0158876D01*
X0136618Y0158876D02*
X0136618Y0160377D01*
X0136118Y0159876D01*
X0135645Y0160127D02*
X0135395Y0160377D01*
X0134895Y0160377D01*
X0137591Y0160127D02*
X0137841Y0160377D01*
X0138342Y0160377D01*
X0138592Y0160127D01*
X0138592Y0159876D01*
X0138342Y0159626D01*
X0138592Y0159376D01*
X0138592Y0159126D01*
X0138342Y0158876D01*
X0137841Y0158876D01*
X0137591Y0159126D01*
X0138091Y0159626D02*
X0138342Y0159626D01*
X0136632Y0152345D02*
X0136132Y0152345D01*
X0135882Y0152095D01*
X0135409Y0152095D02*
X0135409Y0151595D01*
X0135159Y0151345D01*
X0134408Y0151345D01*
X0134909Y0151345D02*
X0135409Y0150844D01*
X0135882Y0151094D02*
X0136132Y0150844D01*
X0136632Y0150844D01*
X0136882Y0151094D01*
X0136882Y0151345D01*
X0136632Y0151595D01*
X0136382Y0151595D01*
X0136632Y0151595D02*
X0136882Y0151845D01*
X0136882Y0152095D01*
X0136632Y0152345D01*
X0135409Y0152095D02*
X0135159Y0152345D01*
X0134408Y0152345D01*
X0134408Y0150844D01*
X0134487Y0143054D02*
X0135238Y0143054D01*
X0135488Y0142804D01*
X0135488Y0142303D01*
X0135238Y0142053D01*
X0134487Y0142053D01*
X0134487Y0141553D02*
X0134487Y0143054D01*
X0134987Y0142053D02*
X0135488Y0141553D01*
X0135960Y0142303D02*
X0136961Y0142303D01*
X0136711Y0141553D02*
X0136711Y0143054D01*
X0135960Y0142303D01*
X0136171Y0136735D02*
X0135921Y0136485D01*
X0136171Y0136735D02*
X0136672Y0136735D01*
X0136922Y0136485D01*
X0136922Y0136235D01*
X0135921Y0135234D01*
X0136922Y0135234D01*
X0135448Y0135234D02*
X0134948Y0135734D01*
X0135198Y0135734D02*
X0134448Y0135734D01*
X0134448Y0135234D02*
X0134448Y0136735D01*
X0135198Y0136735D01*
X0135448Y0136485D01*
X0135448Y0135984D01*
X0135198Y0135734D01*
X0102632Y0109500D02*
X0102632Y0108499D01*
X0101631Y0109500D01*
X0101381Y0109500D01*
X0101131Y0109249D01*
X0101131Y0108749D01*
X0101381Y0108499D01*
X0101131Y0107526D02*
X0102632Y0107526D01*
X0102632Y0107026D02*
X0102632Y0108026D01*
X0101631Y0107026D02*
X0101131Y0107526D01*
X0101381Y0106553D02*
X0101131Y0106303D01*
X0101131Y0105802D01*
X0101381Y0105552D01*
X0102382Y0105552D01*
X0102632Y0105802D01*
X0102632Y0106303D01*
X0102382Y0106553D01*
X0088221Y0107763D02*
X0087971Y0107513D01*
X0086970Y0107513D01*
X0086720Y0107763D01*
X0086720Y0108264D01*
X0086970Y0108514D01*
X0087220Y0108986D02*
X0086720Y0109487D01*
X0088221Y0109487D01*
X0088221Y0109987D02*
X0088221Y0108986D01*
X0087971Y0108514D02*
X0088221Y0108264D01*
X0088221Y0107763D01*
X0088221Y0110459D02*
X0088221Y0111460D01*
X0088221Y0110960D02*
X0086720Y0110960D01*
X0087220Y0110459D01*
X0061708Y0132994D02*
X0061457Y0132744D01*
X0060957Y0132744D01*
X0060707Y0132994D01*
X0061708Y0133995D01*
X0061708Y0132994D01*
X0061708Y0133995D02*
X0061457Y0134245D01*
X0060957Y0134245D01*
X0060707Y0133995D01*
X0060707Y0132994D01*
X0060234Y0132744D02*
X0059233Y0132744D01*
X0059734Y0132744D02*
X0059734Y0134245D01*
X0059233Y0133745D01*
X0058761Y0133995D02*
X0058511Y0134245D01*
X0058010Y0134245D01*
X0057760Y0133995D01*
X0057760Y0132994D01*
X0058010Y0132744D01*
X0058511Y0132744D01*
X0058761Y0132994D01*
X0059444Y0139043D02*
X0059945Y0139043D01*
X0060195Y0139294D01*
X0060667Y0139294D02*
X0060917Y0139043D01*
X0061418Y0139043D01*
X0061668Y0139294D01*
X0061668Y0140294D01*
X0061418Y0140545D01*
X0060917Y0140545D01*
X0060667Y0140294D01*
X0060667Y0140044D01*
X0060917Y0139794D01*
X0061668Y0139794D01*
X0060195Y0140294D02*
X0059945Y0140545D01*
X0059444Y0140545D01*
X0059194Y0140294D01*
X0059194Y0139294D01*
X0059444Y0139043D01*
X0059405Y0144949D02*
X0059905Y0144949D01*
X0060156Y0145199D01*
X0060628Y0145199D02*
X0060628Y0145449D01*
X0060878Y0145699D01*
X0061379Y0145699D01*
X0061629Y0145449D01*
X0061629Y0145199D01*
X0061379Y0144949D01*
X0060878Y0144949D01*
X0060628Y0145199D01*
X0060878Y0145699D02*
X0060628Y0145950D01*
X0060628Y0146200D01*
X0060878Y0146450D01*
X0061379Y0146450D01*
X0061629Y0146200D01*
X0061629Y0145950D01*
X0061379Y0145699D01*
X0060156Y0146200D02*
X0059905Y0146450D01*
X0059405Y0146450D01*
X0059155Y0146200D01*
X0059155Y0145199D01*
X0059405Y0144949D01*
X0059550Y0168863D02*
X0058549Y0168863D01*
X0058299Y0169114D01*
X0058299Y0169614D01*
X0058549Y0169864D01*
X0058799Y0170337D02*
X0058299Y0170837D01*
X0059800Y0170837D01*
X0059800Y0170337D02*
X0059800Y0171337D01*
X0059550Y0171810D02*
X0059300Y0171810D01*
X0059049Y0172060D01*
X0059049Y0172560D01*
X0059300Y0172811D01*
X0059550Y0172811D01*
X0059800Y0172560D01*
X0059800Y0172060D01*
X0059550Y0171810D01*
X0059049Y0172060D02*
X0058799Y0171810D01*
X0058549Y0171810D01*
X0058299Y0172060D01*
X0058299Y0172560D01*
X0058549Y0172811D01*
X0058799Y0172811D01*
X0059049Y0172560D01*
X0059550Y0169864D02*
X0059800Y0169614D01*
X0059800Y0169114D01*
X0059550Y0168863D01*
X0069397Y0173354D02*
X0069647Y0173103D01*
X0070648Y0173103D01*
X0070898Y0173354D01*
X0070898Y0173854D01*
X0070648Y0174104D01*
X0070898Y0174577D02*
X0070898Y0175578D01*
X0070898Y0175077D02*
X0069397Y0175077D01*
X0069898Y0174577D01*
X0069647Y0174104D02*
X0069397Y0173854D01*
X0069397Y0173354D01*
X0070148Y0176050D02*
X0070148Y0176801D01*
X0070398Y0177051D01*
X0070648Y0177051D01*
X0070898Y0176801D01*
X0070898Y0176300D01*
X0070648Y0176050D01*
X0070148Y0176050D01*
X0069647Y0176550D01*
X0069397Y0177051D01*
X0076484Y0177090D02*
X0076734Y0177090D01*
X0077735Y0176089D01*
X0077985Y0176089D01*
X0077985Y0175617D02*
X0077985Y0174616D01*
X0077985Y0175116D02*
X0076484Y0175116D01*
X0076984Y0174616D01*
X0076734Y0174144D02*
X0076484Y0173893D01*
X0076484Y0173393D01*
X0076734Y0173143D01*
X0077735Y0173143D01*
X0077985Y0173393D01*
X0077985Y0173893D01*
X0077735Y0174144D01*
X0076484Y0176089D02*
X0076484Y0177090D01*
X0084633Y0182942D02*
X0084633Y0183442D01*
X0084633Y0183192D02*
X0086135Y0183192D01*
X0086135Y0182942D02*
X0086135Y0183442D01*
X0086135Y0183924D02*
X0086135Y0184925D01*
X0086135Y0184424D02*
X0084633Y0184424D01*
X0085134Y0183924D01*
X0088541Y0183108D02*
X0088541Y0182108D01*
X0089292Y0182108D01*
X0089042Y0182608D01*
X0089042Y0182858D01*
X0089292Y0183108D01*
X0089792Y0183108D01*
X0090043Y0182858D01*
X0090043Y0182358D01*
X0089792Y0182108D01*
X0090043Y0181635D02*
X0090043Y0180634D01*
X0090043Y0181135D02*
X0088541Y0181135D01*
X0089042Y0180634D01*
X0088791Y0180162D02*
X0088541Y0179912D01*
X0088541Y0179411D01*
X0088791Y0179161D01*
X0089792Y0179161D01*
X0090043Y0179411D01*
X0090043Y0179912D01*
X0089792Y0180162D01*
X0096415Y0179951D02*
X0096415Y0179451D01*
X0096665Y0179200D01*
X0097666Y0179200D01*
X0097917Y0179451D01*
X0097917Y0179951D01*
X0097666Y0180201D01*
X0097917Y0180674D02*
X0097917Y0181674D01*
X0097917Y0181174D02*
X0096415Y0181174D01*
X0096916Y0180674D01*
X0096665Y0180201D02*
X0096415Y0179951D01*
X0097166Y0182147D02*
X0097166Y0183148D01*
X0097917Y0182898D02*
X0096415Y0182898D01*
X0097166Y0182147D01*
X0117468Y0173243D02*
X0117468Y0172242D01*
X0117718Y0171992D01*
X0118219Y0171992D01*
X0118469Y0172242D01*
X0118941Y0172242D02*
X0119192Y0171992D01*
X0119692Y0171992D01*
X0119942Y0172242D01*
X0119942Y0172743D01*
X0119692Y0172993D01*
X0119442Y0172993D01*
X0118941Y0172743D01*
X0118941Y0173493D01*
X0119942Y0173493D01*
X0118469Y0173243D02*
X0118219Y0173493D01*
X0117718Y0173493D01*
X0117468Y0173243D01*
X0069284Y0189441D02*
X0069034Y0189191D01*
X0068533Y0189191D01*
X0068283Y0189441D01*
X0068283Y0189941D02*
X0068784Y0190191D01*
X0069034Y0190191D01*
X0069284Y0189941D01*
X0069284Y0189441D01*
X0068283Y0189941D02*
X0068283Y0190692D01*
X0069284Y0190692D01*
X0067811Y0190442D02*
X0067811Y0189941D01*
X0067560Y0189691D01*
X0066810Y0189691D01*
X0067310Y0189691D02*
X0067811Y0189191D01*
X0066810Y0189191D02*
X0066810Y0190692D01*
X0067560Y0190692D01*
X0067811Y0190442D01*
X0199150Y0135884D02*
X0199150Y0134383D01*
X0199150Y0134883D02*
X0199901Y0134883D01*
X0200151Y0135134D01*
X0200151Y0135634D01*
X0199901Y0135884D01*
X0199150Y0135884D01*
X0199650Y0134883D02*
X0200151Y0134383D01*
X0200623Y0134633D02*
X0200873Y0134383D01*
X0201374Y0134383D01*
X0201624Y0134633D01*
X0201624Y0134883D01*
X0201374Y0135134D01*
X0200623Y0135134D01*
X0200623Y0134633D01*
X0200623Y0135134D02*
X0201124Y0135634D01*
X0201624Y0135884D01*
X0214480Y0128584D02*
X0214480Y0127083D01*
X0214480Y0127583D02*
X0215231Y0127583D01*
X0215481Y0127834D01*
X0215481Y0128334D01*
X0215231Y0128584D01*
X0214480Y0128584D01*
X0214981Y0127583D02*
X0215481Y0127083D01*
X0215953Y0127083D02*
X0216954Y0127083D01*
X0216454Y0127083D02*
X0216454Y0128584D01*
X0215953Y0128084D01*
X0217427Y0128334D02*
X0217677Y0128584D01*
X0218177Y0128584D01*
X0218428Y0128334D01*
X0218428Y0128084D01*
X0218177Y0127834D01*
X0218428Y0127583D01*
X0218428Y0127333D01*
X0218177Y0127083D01*
X0217677Y0127083D01*
X0217427Y0127333D01*
X0217927Y0127834D02*
X0218177Y0127834D01*
X0197877Y0083334D02*
X0197377Y0083334D01*
X0197127Y0083084D01*
X0197877Y0083334D02*
X0198128Y0083084D01*
X0198128Y0082834D01*
X0197127Y0081833D01*
X0198128Y0081833D01*
X0196654Y0081833D02*
X0195653Y0081833D01*
X0195181Y0081833D02*
X0194681Y0082333D01*
X0194931Y0082333D02*
X0194180Y0082333D01*
X0194180Y0081833D02*
X0194180Y0083334D01*
X0194931Y0083334D01*
X0195181Y0083084D01*
X0195181Y0082584D01*
X0194931Y0082333D01*
X0195653Y0082834D02*
X0196154Y0083334D01*
X0196154Y0081833D01*
X0196254Y0074934D02*
X0196254Y0073433D01*
X0196754Y0073433D02*
X0195753Y0073433D01*
X0195281Y0073433D02*
X0194781Y0073933D01*
X0195031Y0073933D02*
X0194280Y0073933D01*
X0194280Y0073433D02*
X0194280Y0074934D01*
X0195031Y0074934D01*
X0195281Y0074684D01*
X0195281Y0074184D01*
X0195031Y0073933D01*
X0195753Y0074434D02*
X0196254Y0074934D01*
X0197227Y0074184D02*
X0198228Y0074184D01*
X0197977Y0074934D02*
X0197977Y0073433D01*
X0197227Y0074184D02*
X0197977Y0074934D01*
X0081800Y0068060D02*
X0080299Y0068060D01*
X0081049Y0067310D01*
X0081049Y0068311D01*
X0080549Y0066837D02*
X0080299Y0066587D01*
X0080299Y0065837D01*
X0081800Y0065837D01*
X0081800Y0066587D01*
X0081550Y0066837D01*
X0080549Y0066837D01*
X0080299Y0065364D02*
X0080299Y0064363D01*
X0081800Y0064363D01*
X0081800Y0065364D01*
X0081049Y0064864D02*
X0081049Y0064363D01*
X0081800Y0063891D02*
X0081800Y0062890D01*
X0080299Y0062890D01*
X0057200Y0070783D02*
X0055699Y0070783D01*
X0055699Y0071534D01*
X0055949Y0071784D01*
X0056449Y0071784D01*
X0056700Y0071534D01*
X0056700Y0070783D01*
X0056700Y0071283D02*
X0057200Y0071784D01*
X0057200Y0072256D02*
X0057200Y0073257D01*
X0057200Y0073730D02*
X0057200Y0074730D01*
X0057200Y0074230D02*
X0055699Y0074230D01*
X0056199Y0073730D01*
X0055699Y0072757D02*
X0057200Y0072757D01*
X0056199Y0072256D02*
X0055699Y0072757D01*
X0075919Y0082792D02*
X0076450Y0083323D01*
X0076804Y0083323D01*
X0077157Y0082969D01*
X0077158Y0082615D01*
X0076627Y0082084D01*
X0076981Y0081731D02*
X0075919Y0082792D01*
X0076981Y0082438D02*
X0077688Y0082438D01*
X0078022Y0082772D02*
X0078730Y0083480D01*
X0078376Y0083126D02*
X0077315Y0084188D01*
X0077315Y0083480D01*
X0078179Y0084699D02*
X0078179Y0085053D01*
X0078533Y0085406D01*
X0078887Y0085406D01*
X0078887Y0083991D01*
X0079241Y0083991D01*
X0079595Y0084345D01*
X0079595Y0084699D01*
X0078887Y0085406D01*
X0078179Y0084699D02*
X0078887Y0083991D01*
D19*
X0113920Y0174113D02*
X0113920Y0187892D01*
X0137543Y0187892D01*
X0137543Y0174113D01*
X0113920Y0174113D01*
D20*
X0116873Y0181002D03*
X0134590Y0181002D03*
D21*
X0147467Y0180894D03*
X0157467Y0180894D03*
X0167467Y0180894D03*
X0167467Y0170894D03*
X0157467Y0170894D03*
X0147467Y0170894D03*
X0180100Y0161633D03*
X0190100Y0161633D03*
X0190100Y0151633D03*
X0180100Y0151633D03*
X0180100Y0141633D03*
X0190100Y0141633D03*
X0203950Y0062583D03*
X0203950Y0052583D03*
X0203950Y0042583D03*
X0221050Y0042833D03*
X0221050Y0052833D03*
X0221050Y0062833D03*
X0070500Y0042333D03*
X0060500Y0042333D03*
X0050500Y0042333D03*
D22*
X0201969Y0119294D02*
X0201969Y0118754D01*
X0201968Y0118754D02*
X0201915Y0118750D01*
X0201863Y0118742D01*
X0201811Y0118730D01*
X0201760Y0118714D01*
X0201711Y0118695D01*
X0201663Y0118672D01*
X0201617Y0118645D01*
X0201573Y0118615D01*
X0201532Y0118582D01*
X0201493Y0118546D01*
X0201457Y0118507D01*
X0201424Y0118466D01*
X0201394Y0118422D01*
X0201367Y0118376D01*
X0201344Y0118328D01*
X0201325Y0118279D01*
X0201309Y0118228D01*
X0201297Y0118176D01*
X0201289Y0118124D01*
X0201285Y0118071D01*
X0200745Y0118070D01*
X0200744Y0118071D01*
X0200748Y0118139D01*
X0200755Y0118207D01*
X0200766Y0118274D01*
X0200780Y0118341D01*
X0200798Y0118407D01*
X0200820Y0118471D01*
X0200845Y0118535D01*
X0200874Y0118597D01*
X0200906Y0118657D01*
X0200941Y0118715D01*
X0200979Y0118772D01*
X0201020Y0118826D01*
X0201064Y0118878D01*
X0201111Y0118928D01*
X0201161Y0118975D01*
X0201213Y0119019D01*
X0201267Y0119060D01*
X0201324Y0119098D01*
X0201382Y0119133D01*
X0201442Y0119165D01*
X0201504Y0119194D01*
X0201568Y0119219D01*
X0201632Y0119241D01*
X0201698Y0119259D01*
X0201765Y0119273D01*
X0201832Y0119284D01*
X0201900Y0119291D01*
X0201968Y0119295D01*
X0201968Y0119239D01*
X0201901Y0119235D01*
X0201834Y0119228D01*
X0201767Y0119217D01*
X0201701Y0119202D01*
X0201636Y0119183D01*
X0201573Y0119161D01*
X0201510Y0119135D01*
X0201449Y0119106D01*
X0201390Y0119073D01*
X0201333Y0119038D01*
X0201278Y0118999D01*
X0201225Y0118957D01*
X0201175Y0118912D01*
X0201127Y0118864D01*
X0201082Y0118814D01*
X0201040Y0118761D01*
X0201001Y0118706D01*
X0200966Y0118649D01*
X0200933Y0118590D01*
X0200904Y0118529D01*
X0200878Y0118466D01*
X0200856Y0118403D01*
X0200837Y0118338D01*
X0200822Y0118272D01*
X0200811Y0118205D01*
X0200804Y0118138D01*
X0200800Y0118071D01*
X0200856Y0118071D01*
X0200860Y0118138D01*
X0200868Y0118204D01*
X0200879Y0118270D01*
X0200894Y0118334D01*
X0200913Y0118398D01*
X0200936Y0118461D01*
X0200962Y0118522D01*
X0200992Y0118582D01*
X0201026Y0118640D01*
X0201062Y0118695D01*
X0201102Y0118749D01*
X0201145Y0118800D01*
X0201190Y0118849D01*
X0201239Y0118894D01*
X0201290Y0118937D01*
X0201344Y0118977D01*
X0201399Y0119013D01*
X0201457Y0119047D01*
X0201517Y0119077D01*
X0201578Y0119103D01*
X0201641Y0119126D01*
X0201705Y0119145D01*
X0201769Y0119160D01*
X0201835Y0119171D01*
X0201901Y0119179D01*
X0201968Y0119183D01*
X0201968Y0119127D01*
X0201905Y0119123D01*
X0201842Y0119116D01*
X0201780Y0119105D01*
X0201718Y0119090D01*
X0201657Y0119072D01*
X0201598Y0119051D01*
X0201540Y0119026D01*
X0201483Y0118997D01*
X0201428Y0118966D01*
X0201375Y0118931D01*
X0201325Y0118893D01*
X0201276Y0118852D01*
X0201230Y0118809D01*
X0201187Y0118763D01*
X0201146Y0118714D01*
X0201108Y0118664D01*
X0201073Y0118611D01*
X0201042Y0118556D01*
X0201013Y0118499D01*
X0200988Y0118441D01*
X0200967Y0118382D01*
X0200949Y0118321D01*
X0200934Y0118259D01*
X0200923Y0118197D01*
X0200916Y0118134D01*
X0200912Y0118071D01*
X0200968Y0118071D01*
X0200972Y0118133D01*
X0200980Y0118195D01*
X0200991Y0118256D01*
X0201006Y0118317D01*
X0201024Y0118376D01*
X0201046Y0118435D01*
X0201072Y0118491D01*
X0201101Y0118547D01*
X0201133Y0118600D01*
X0201168Y0118651D01*
X0201207Y0118700D01*
X0201248Y0118747D01*
X0201292Y0118791D01*
X0201339Y0118832D01*
X0201388Y0118871D01*
X0201439Y0118906D01*
X0201492Y0118938D01*
X0201548Y0118967D01*
X0201604Y0118993D01*
X0201663Y0119015D01*
X0201722Y0119033D01*
X0201783Y0119048D01*
X0201844Y0119059D01*
X0201906Y0119067D01*
X0201968Y0119071D01*
X0201968Y0119015D01*
X0201907Y0119011D01*
X0201846Y0119003D01*
X0201786Y0118992D01*
X0201727Y0118976D01*
X0201668Y0118958D01*
X0201611Y0118935D01*
X0201556Y0118909D01*
X0201502Y0118879D01*
X0201451Y0118847D01*
X0201401Y0118811D01*
X0201354Y0118772D01*
X0201309Y0118730D01*
X0201267Y0118685D01*
X0201228Y0118638D01*
X0201192Y0118588D01*
X0201160Y0118537D01*
X0201130Y0118483D01*
X0201104Y0118428D01*
X0201081Y0118371D01*
X0201063Y0118312D01*
X0201047Y0118253D01*
X0201036Y0118193D01*
X0201028Y0118132D01*
X0201024Y0118071D01*
X0201080Y0118071D01*
X0201084Y0118128D01*
X0201091Y0118186D01*
X0201102Y0118242D01*
X0201117Y0118298D01*
X0201135Y0118353D01*
X0201156Y0118406D01*
X0201180Y0118458D01*
X0201208Y0118509D01*
X0201239Y0118557D01*
X0201273Y0118604D01*
X0201309Y0118648D01*
X0201349Y0118690D01*
X0201391Y0118730D01*
X0201435Y0118766D01*
X0201482Y0118800D01*
X0201530Y0118831D01*
X0201581Y0118859D01*
X0201633Y0118883D01*
X0201686Y0118904D01*
X0201741Y0118922D01*
X0201797Y0118937D01*
X0201853Y0118948D01*
X0201911Y0118955D01*
X0201968Y0118959D01*
X0201968Y0118902D01*
X0201912Y0118899D01*
X0201856Y0118891D01*
X0201801Y0118880D01*
X0201747Y0118866D01*
X0201693Y0118847D01*
X0201641Y0118826D01*
X0201591Y0118801D01*
X0201542Y0118773D01*
X0201496Y0118741D01*
X0201451Y0118707D01*
X0201409Y0118670D01*
X0201369Y0118630D01*
X0201332Y0118588D01*
X0201298Y0118543D01*
X0201266Y0118497D01*
X0201238Y0118448D01*
X0201213Y0118398D01*
X0201192Y0118346D01*
X0201173Y0118292D01*
X0201159Y0118238D01*
X0201148Y0118183D01*
X0201140Y0118127D01*
X0201137Y0118071D01*
X0201193Y0118071D01*
X0201196Y0118126D01*
X0201204Y0118180D01*
X0201215Y0118234D01*
X0201230Y0118286D01*
X0201249Y0118338D01*
X0201271Y0118388D01*
X0201296Y0118437D01*
X0201324Y0118484D01*
X0201356Y0118528D01*
X0201391Y0118571D01*
X0201428Y0118611D01*
X0201468Y0118648D01*
X0201511Y0118683D01*
X0201555Y0118715D01*
X0201602Y0118743D01*
X0201651Y0118768D01*
X0201701Y0118790D01*
X0201753Y0118809D01*
X0201805Y0118824D01*
X0201859Y0118835D01*
X0201913Y0118843D01*
X0201968Y0118846D01*
X0201968Y0118790D01*
X0201915Y0118786D01*
X0201862Y0118779D01*
X0201810Y0118767D01*
X0201759Y0118752D01*
X0201709Y0118733D01*
X0201661Y0118711D01*
X0201614Y0118685D01*
X0201570Y0118657D01*
X0201527Y0118625D01*
X0201487Y0118590D01*
X0201449Y0118552D01*
X0201414Y0118512D01*
X0201382Y0118469D01*
X0201354Y0118425D01*
X0201328Y0118378D01*
X0201306Y0118330D01*
X0201287Y0118280D01*
X0201272Y0118229D01*
X0201260Y0118177D01*
X0201253Y0118124D01*
X0201249Y0118071D01*
X0221755Y0118070D02*
X0221215Y0118070D01*
X0221215Y0118071D02*
X0221211Y0118124D01*
X0221203Y0118176D01*
X0221191Y0118228D01*
X0221175Y0118279D01*
X0221156Y0118328D01*
X0221133Y0118376D01*
X0221106Y0118422D01*
X0221076Y0118466D01*
X0221043Y0118507D01*
X0221007Y0118546D01*
X0220968Y0118582D01*
X0220927Y0118615D01*
X0220883Y0118645D01*
X0220837Y0118672D01*
X0220789Y0118695D01*
X0220740Y0118714D01*
X0220689Y0118730D01*
X0220637Y0118742D01*
X0220585Y0118750D01*
X0220532Y0118754D01*
X0220531Y0119294D01*
X0220532Y0119295D01*
X0220600Y0119291D01*
X0220668Y0119284D01*
X0220735Y0119273D01*
X0220802Y0119259D01*
X0220868Y0119241D01*
X0220932Y0119219D01*
X0220996Y0119194D01*
X0221058Y0119165D01*
X0221118Y0119133D01*
X0221176Y0119098D01*
X0221233Y0119060D01*
X0221287Y0119019D01*
X0221339Y0118975D01*
X0221389Y0118928D01*
X0221436Y0118878D01*
X0221480Y0118826D01*
X0221521Y0118772D01*
X0221559Y0118715D01*
X0221594Y0118657D01*
X0221626Y0118597D01*
X0221655Y0118535D01*
X0221680Y0118471D01*
X0221702Y0118407D01*
X0221720Y0118341D01*
X0221734Y0118274D01*
X0221745Y0118207D01*
X0221752Y0118139D01*
X0221756Y0118071D01*
X0221700Y0118071D01*
X0221696Y0118138D01*
X0221689Y0118205D01*
X0221678Y0118272D01*
X0221663Y0118338D01*
X0221644Y0118403D01*
X0221622Y0118466D01*
X0221596Y0118529D01*
X0221567Y0118590D01*
X0221534Y0118649D01*
X0221499Y0118706D01*
X0221460Y0118761D01*
X0221418Y0118814D01*
X0221373Y0118864D01*
X0221325Y0118912D01*
X0221275Y0118957D01*
X0221222Y0118999D01*
X0221167Y0119038D01*
X0221110Y0119073D01*
X0221051Y0119106D01*
X0220990Y0119135D01*
X0220927Y0119161D01*
X0220864Y0119183D01*
X0220799Y0119202D01*
X0220733Y0119217D01*
X0220666Y0119228D01*
X0220599Y0119235D01*
X0220532Y0119239D01*
X0220532Y0119183D01*
X0220599Y0119179D01*
X0220665Y0119171D01*
X0220731Y0119160D01*
X0220795Y0119145D01*
X0220859Y0119126D01*
X0220922Y0119103D01*
X0220983Y0119077D01*
X0221043Y0119047D01*
X0221101Y0119013D01*
X0221156Y0118977D01*
X0221210Y0118937D01*
X0221261Y0118894D01*
X0221310Y0118849D01*
X0221355Y0118800D01*
X0221398Y0118749D01*
X0221438Y0118695D01*
X0221474Y0118640D01*
X0221508Y0118582D01*
X0221538Y0118522D01*
X0221564Y0118461D01*
X0221587Y0118398D01*
X0221606Y0118334D01*
X0221621Y0118270D01*
X0221632Y0118204D01*
X0221640Y0118138D01*
X0221644Y0118071D01*
X0221588Y0118071D01*
X0221584Y0118134D01*
X0221577Y0118197D01*
X0221566Y0118259D01*
X0221551Y0118321D01*
X0221533Y0118382D01*
X0221512Y0118441D01*
X0221487Y0118499D01*
X0221458Y0118556D01*
X0221427Y0118611D01*
X0221392Y0118664D01*
X0221354Y0118714D01*
X0221313Y0118763D01*
X0221270Y0118809D01*
X0221224Y0118852D01*
X0221175Y0118893D01*
X0221125Y0118931D01*
X0221072Y0118966D01*
X0221017Y0118997D01*
X0220960Y0119026D01*
X0220902Y0119051D01*
X0220843Y0119072D01*
X0220782Y0119090D01*
X0220720Y0119105D01*
X0220658Y0119116D01*
X0220595Y0119123D01*
X0220532Y0119127D01*
X0220532Y0119071D01*
X0220594Y0119067D01*
X0220656Y0119059D01*
X0220717Y0119048D01*
X0220778Y0119033D01*
X0220837Y0119015D01*
X0220896Y0118993D01*
X0220952Y0118967D01*
X0221008Y0118938D01*
X0221061Y0118906D01*
X0221112Y0118871D01*
X0221161Y0118832D01*
X0221208Y0118791D01*
X0221252Y0118747D01*
X0221293Y0118700D01*
X0221332Y0118651D01*
X0221367Y0118600D01*
X0221399Y0118547D01*
X0221428Y0118491D01*
X0221454Y0118435D01*
X0221476Y0118376D01*
X0221494Y0118317D01*
X0221509Y0118256D01*
X0221520Y0118195D01*
X0221528Y0118133D01*
X0221532Y0118071D01*
X0221476Y0118071D01*
X0221472Y0118132D01*
X0221464Y0118193D01*
X0221453Y0118253D01*
X0221437Y0118312D01*
X0221419Y0118371D01*
X0221396Y0118428D01*
X0221370Y0118483D01*
X0221340Y0118537D01*
X0221308Y0118588D01*
X0221272Y0118638D01*
X0221233Y0118685D01*
X0221191Y0118730D01*
X0221146Y0118772D01*
X0221099Y0118811D01*
X0221049Y0118847D01*
X0220998Y0118879D01*
X0220944Y0118909D01*
X0220889Y0118935D01*
X0220832Y0118958D01*
X0220773Y0118976D01*
X0220714Y0118992D01*
X0220654Y0119003D01*
X0220593Y0119011D01*
X0220532Y0119015D01*
X0220532Y0118959D01*
X0220589Y0118955D01*
X0220647Y0118948D01*
X0220703Y0118937D01*
X0220759Y0118922D01*
X0220814Y0118904D01*
X0220867Y0118883D01*
X0220919Y0118859D01*
X0220970Y0118831D01*
X0221018Y0118800D01*
X0221065Y0118766D01*
X0221109Y0118730D01*
X0221151Y0118690D01*
X0221191Y0118648D01*
X0221227Y0118604D01*
X0221261Y0118557D01*
X0221292Y0118509D01*
X0221320Y0118458D01*
X0221344Y0118406D01*
X0221365Y0118353D01*
X0221383Y0118298D01*
X0221398Y0118242D01*
X0221409Y0118186D01*
X0221416Y0118128D01*
X0221420Y0118071D01*
X0221363Y0118071D01*
X0221360Y0118127D01*
X0221352Y0118183D01*
X0221341Y0118238D01*
X0221327Y0118292D01*
X0221308Y0118346D01*
X0221287Y0118398D01*
X0221262Y0118448D01*
X0221234Y0118497D01*
X0221202Y0118543D01*
X0221168Y0118588D01*
X0221131Y0118630D01*
X0221091Y0118670D01*
X0221049Y0118707D01*
X0221004Y0118741D01*
X0220958Y0118773D01*
X0220909Y0118801D01*
X0220859Y0118826D01*
X0220807Y0118847D01*
X0220753Y0118866D01*
X0220699Y0118880D01*
X0220644Y0118891D01*
X0220588Y0118899D01*
X0220532Y0118902D01*
X0220532Y0118846D01*
X0220587Y0118843D01*
X0220641Y0118835D01*
X0220695Y0118824D01*
X0220747Y0118809D01*
X0220799Y0118790D01*
X0220849Y0118768D01*
X0220898Y0118743D01*
X0220945Y0118715D01*
X0220989Y0118683D01*
X0221032Y0118648D01*
X0221072Y0118611D01*
X0221109Y0118571D01*
X0221144Y0118528D01*
X0221176Y0118484D01*
X0221204Y0118437D01*
X0221229Y0118388D01*
X0221251Y0118338D01*
X0221270Y0118286D01*
X0221285Y0118234D01*
X0221296Y0118180D01*
X0221304Y0118126D01*
X0221307Y0118071D01*
X0221251Y0118071D01*
X0221247Y0118124D01*
X0221240Y0118177D01*
X0221228Y0118229D01*
X0221213Y0118280D01*
X0221194Y0118330D01*
X0221172Y0118378D01*
X0221146Y0118425D01*
X0221118Y0118469D01*
X0221086Y0118512D01*
X0221051Y0118552D01*
X0221013Y0118590D01*
X0220973Y0118625D01*
X0220930Y0118657D01*
X0220886Y0118685D01*
X0220839Y0118711D01*
X0220791Y0118733D01*
X0220741Y0118752D01*
X0220690Y0118767D01*
X0220638Y0118779D01*
X0220585Y0118786D01*
X0220532Y0118790D01*
X0220531Y0099072D02*
X0220531Y0099612D01*
X0220532Y0099612D02*
X0220585Y0099616D01*
X0220637Y0099624D01*
X0220689Y0099636D01*
X0220740Y0099652D01*
X0220789Y0099671D01*
X0220837Y0099694D01*
X0220883Y0099721D01*
X0220927Y0099751D01*
X0220968Y0099784D01*
X0221007Y0099820D01*
X0221043Y0099859D01*
X0221076Y0099900D01*
X0221106Y0099944D01*
X0221133Y0099990D01*
X0221156Y0100038D01*
X0221175Y0100087D01*
X0221191Y0100138D01*
X0221203Y0100190D01*
X0221211Y0100242D01*
X0221215Y0100295D01*
X0221755Y0100296D01*
X0221756Y0100295D01*
X0221752Y0100227D01*
X0221745Y0100159D01*
X0221734Y0100092D01*
X0221720Y0100025D01*
X0221702Y0099959D01*
X0221680Y0099895D01*
X0221655Y0099831D01*
X0221626Y0099769D01*
X0221594Y0099709D01*
X0221559Y0099651D01*
X0221521Y0099594D01*
X0221480Y0099540D01*
X0221436Y0099488D01*
X0221389Y0099438D01*
X0221339Y0099391D01*
X0221287Y0099347D01*
X0221233Y0099306D01*
X0221176Y0099268D01*
X0221118Y0099233D01*
X0221058Y0099201D01*
X0220996Y0099172D01*
X0220932Y0099147D01*
X0220868Y0099125D01*
X0220802Y0099107D01*
X0220735Y0099093D01*
X0220668Y0099082D01*
X0220600Y0099075D01*
X0220532Y0099071D01*
X0220532Y0099127D01*
X0220599Y0099131D01*
X0220666Y0099138D01*
X0220733Y0099149D01*
X0220799Y0099164D01*
X0220864Y0099183D01*
X0220927Y0099205D01*
X0220990Y0099231D01*
X0221051Y0099260D01*
X0221110Y0099293D01*
X0221167Y0099328D01*
X0221222Y0099367D01*
X0221275Y0099409D01*
X0221325Y0099454D01*
X0221373Y0099502D01*
X0221418Y0099552D01*
X0221460Y0099605D01*
X0221499Y0099660D01*
X0221534Y0099717D01*
X0221567Y0099776D01*
X0221596Y0099837D01*
X0221622Y0099900D01*
X0221644Y0099963D01*
X0221663Y0100028D01*
X0221678Y0100094D01*
X0221689Y0100161D01*
X0221696Y0100228D01*
X0221700Y0100295D01*
X0221644Y0100295D01*
X0221640Y0100228D01*
X0221632Y0100162D01*
X0221621Y0100096D01*
X0221606Y0100032D01*
X0221587Y0099968D01*
X0221564Y0099905D01*
X0221538Y0099844D01*
X0221508Y0099784D01*
X0221474Y0099726D01*
X0221438Y0099671D01*
X0221398Y0099617D01*
X0221355Y0099566D01*
X0221310Y0099517D01*
X0221261Y0099472D01*
X0221210Y0099429D01*
X0221156Y0099389D01*
X0221101Y0099353D01*
X0221043Y0099319D01*
X0220983Y0099289D01*
X0220922Y0099263D01*
X0220859Y0099240D01*
X0220795Y0099221D01*
X0220731Y0099206D01*
X0220665Y0099195D01*
X0220599Y0099187D01*
X0220532Y0099183D01*
X0220532Y0099239D01*
X0220595Y0099243D01*
X0220658Y0099250D01*
X0220720Y0099261D01*
X0220782Y0099276D01*
X0220843Y0099294D01*
X0220902Y0099315D01*
X0220960Y0099340D01*
X0221017Y0099369D01*
X0221072Y0099400D01*
X0221125Y0099435D01*
X0221175Y0099473D01*
X0221224Y0099514D01*
X0221270Y0099557D01*
X0221313Y0099603D01*
X0221354Y0099652D01*
X0221392Y0099702D01*
X0221427Y0099755D01*
X0221458Y0099810D01*
X0221487Y0099867D01*
X0221512Y0099925D01*
X0221533Y0099984D01*
X0221551Y0100045D01*
X0221566Y0100107D01*
X0221577Y0100169D01*
X0221584Y0100232D01*
X0221588Y0100295D01*
X0221532Y0100295D01*
X0221528Y0100233D01*
X0221520Y0100171D01*
X0221509Y0100110D01*
X0221494Y0100049D01*
X0221476Y0099990D01*
X0221454Y0099931D01*
X0221428Y0099875D01*
X0221399Y0099819D01*
X0221367Y0099766D01*
X0221332Y0099715D01*
X0221293Y0099666D01*
X0221252Y0099619D01*
X0221208Y0099575D01*
X0221161Y0099534D01*
X0221112Y0099495D01*
X0221061Y0099460D01*
X0221008Y0099428D01*
X0220952Y0099399D01*
X0220896Y0099373D01*
X0220837Y0099351D01*
X0220778Y0099333D01*
X0220717Y0099318D01*
X0220656Y0099307D01*
X0220594Y0099299D01*
X0220532Y0099295D01*
X0220532Y0099351D01*
X0220593Y0099355D01*
X0220654Y0099363D01*
X0220714Y0099374D01*
X0220773Y0099390D01*
X0220832Y0099408D01*
X0220889Y0099431D01*
X0220944Y0099457D01*
X0220998Y0099487D01*
X0221049Y0099519D01*
X0221099Y0099555D01*
X0221146Y0099594D01*
X0221191Y0099636D01*
X0221233Y0099681D01*
X0221272Y0099728D01*
X0221308Y0099778D01*
X0221340Y0099829D01*
X0221370Y0099883D01*
X0221396Y0099938D01*
X0221419Y0099995D01*
X0221437Y0100054D01*
X0221453Y0100113D01*
X0221464Y0100173D01*
X0221472Y0100234D01*
X0221476Y0100295D01*
X0221420Y0100295D01*
X0221416Y0100238D01*
X0221409Y0100180D01*
X0221398Y0100124D01*
X0221383Y0100068D01*
X0221365Y0100013D01*
X0221344Y0099960D01*
X0221320Y0099908D01*
X0221292Y0099857D01*
X0221261Y0099809D01*
X0221227Y0099762D01*
X0221191Y0099718D01*
X0221151Y0099676D01*
X0221109Y0099636D01*
X0221065Y0099600D01*
X0221018Y0099566D01*
X0220970Y0099535D01*
X0220919Y0099507D01*
X0220867Y0099483D01*
X0220814Y0099462D01*
X0220759Y0099444D01*
X0220703Y0099429D01*
X0220647Y0099418D01*
X0220589Y0099411D01*
X0220532Y0099407D01*
X0220532Y0099464D01*
X0220588Y0099467D01*
X0220644Y0099475D01*
X0220699Y0099486D01*
X0220753Y0099500D01*
X0220807Y0099519D01*
X0220859Y0099540D01*
X0220909Y0099565D01*
X0220958Y0099593D01*
X0221004Y0099625D01*
X0221049Y0099659D01*
X0221091Y0099696D01*
X0221131Y0099736D01*
X0221168Y0099778D01*
X0221202Y0099823D01*
X0221234Y0099869D01*
X0221262Y0099918D01*
X0221287Y0099968D01*
X0221308Y0100020D01*
X0221327Y0100074D01*
X0221341Y0100128D01*
X0221352Y0100183D01*
X0221360Y0100239D01*
X0221363Y0100295D01*
X0221307Y0100295D01*
X0221304Y0100240D01*
X0221296Y0100186D01*
X0221285Y0100132D01*
X0221270Y0100080D01*
X0221251Y0100028D01*
X0221229Y0099978D01*
X0221204Y0099929D01*
X0221176Y0099882D01*
X0221144Y0099838D01*
X0221109Y0099795D01*
X0221072Y0099755D01*
X0221032Y0099718D01*
X0220989Y0099683D01*
X0220945Y0099651D01*
X0220898Y0099623D01*
X0220849Y0099598D01*
X0220799Y0099576D01*
X0220747Y0099557D01*
X0220695Y0099542D01*
X0220641Y0099531D01*
X0220587Y0099523D01*
X0220532Y0099520D01*
X0220532Y0099576D01*
X0220585Y0099580D01*
X0220638Y0099587D01*
X0220690Y0099599D01*
X0220741Y0099614D01*
X0220791Y0099633D01*
X0220839Y0099655D01*
X0220886Y0099681D01*
X0220930Y0099709D01*
X0220973Y0099741D01*
X0221013Y0099776D01*
X0221051Y0099814D01*
X0221086Y0099854D01*
X0221118Y0099897D01*
X0221146Y0099941D01*
X0221172Y0099988D01*
X0221194Y0100036D01*
X0221213Y0100086D01*
X0221228Y0100137D01*
X0221240Y0100189D01*
X0221247Y0100242D01*
X0221251Y0100295D01*
D23*
X0218750Y0097569D03*
X0213750Y0097569D03*
X0208750Y0097569D03*
X0203750Y0097569D03*
X0203789Y0120797D03*
X0208789Y0120797D03*
X0213789Y0120797D03*
X0218750Y0120797D03*
M02*
