G75*
%MOIN*%
%OFA0B0*%
%FSLAX25Y25*%
%IPPOS*%
%LPD*%
%AMOC8*
5,1,8,0,0,1.08239X$1,22.5*
%
%ADD10C,0.00300*%
%ADD11C,0.00200*%
%ADD12C,0.00500*%
%ADD13C,0.01200*%
%ADD14C,0.00600*%
%ADD15C,0.00100*%
%ADD16C,0.00700*%
%ADD17C,0.02400*%
%ADD18C,0.00800*%
D10*
X0047286Y0049133D02*
X0046319Y0050101D01*
X0046319Y0052036D01*
X0048253Y0052036D02*
X0048253Y0050101D01*
X0047286Y0049133D01*
X0049265Y0049617D02*
X0049265Y0050584D01*
X0049749Y0051068D01*
X0050233Y0051068D01*
X0051200Y0050584D01*
X0051200Y0052036D01*
X0049265Y0052036D01*
X0049265Y0049617D02*
X0049749Y0049133D01*
X0050716Y0049133D01*
X0051200Y0049617D01*
X0056854Y0050184D02*
X0057338Y0049701D01*
X0058789Y0049701D01*
X0057822Y0049701D02*
X0056854Y0048733D01*
X0056854Y0050184D02*
X0056854Y0051152D01*
X0057338Y0051636D01*
X0058789Y0051636D01*
X0058789Y0048733D01*
X0059786Y0048733D02*
X0060753Y0048733D01*
X0060270Y0048733D02*
X0060270Y0051636D01*
X0060753Y0051636D02*
X0059786Y0051636D01*
X0061765Y0051152D02*
X0061765Y0050184D01*
X0062249Y0049701D01*
X0063700Y0049701D01*
X0063700Y0048733D02*
X0063700Y0051636D01*
X0062249Y0051636D01*
X0061765Y0051152D01*
X0090737Y0048744D02*
X0090737Y0047293D01*
X0093639Y0047293D01*
X0093639Y0048744D01*
X0093155Y0049228D01*
X0091220Y0049228D01*
X0090737Y0048744D01*
X0090737Y0046281D02*
X0093639Y0046281D01*
X0093639Y0044346D02*
X0090737Y0044346D01*
X0091220Y0043335D02*
X0090737Y0042851D01*
X0090737Y0041883D01*
X0091220Y0041400D01*
X0093155Y0041400D01*
X0093639Y0041883D01*
X0093639Y0042851D01*
X0093155Y0043335D01*
X0092188Y0043335D02*
X0092188Y0042367D01*
X0092188Y0043335D02*
X0091220Y0043335D01*
X0093639Y0044346D02*
X0090737Y0046281D01*
X0184050Y0109794D02*
X0186952Y0109794D01*
X0186952Y0111245D01*
X0186469Y0111728D01*
X0185501Y0111728D01*
X0185017Y0111245D01*
X0185017Y0109794D01*
X0184050Y0112740D02*
X0185017Y0113708D01*
X0184050Y0114675D01*
X0186952Y0114675D01*
X0186952Y0115687D02*
X0184050Y0115687D01*
X0185017Y0115687D02*
X0185017Y0117138D01*
X0185501Y0117622D01*
X0186469Y0117622D01*
X0186952Y0117138D01*
X0186952Y0115687D01*
X0185017Y0116654D02*
X0184050Y0117622D01*
X0185084Y0120644D02*
X0184600Y0121127D01*
X0184600Y0122095D01*
X0185084Y0122578D01*
X0186051Y0122578D01*
X0186051Y0121611D01*
X0185084Y0120644D02*
X0187019Y0120644D01*
X0187502Y0121127D01*
X0187502Y0122095D01*
X0187019Y0122578D01*
X0187502Y0123590D02*
X0184600Y0123590D01*
X0184600Y0125525D02*
X0187502Y0125525D01*
X0187502Y0126537D02*
X0187502Y0127988D01*
X0187019Y0128472D01*
X0185084Y0128472D01*
X0184600Y0127988D01*
X0184600Y0126537D01*
X0187502Y0126537D01*
X0187502Y0123590D02*
X0184600Y0125525D01*
X0184082Y0132383D02*
X0184082Y0135286D01*
X0182631Y0135286D01*
X0182147Y0134802D01*
X0182147Y0133834D01*
X0182631Y0133351D01*
X0184082Y0133351D01*
X0182631Y0133351D01*
X0182147Y0133834D01*
X0182147Y0134802D01*
X0182631Y0135286D01*
X0184082Y0135286D01*
X0184082Y0132383D01*
X0181135Y0132383D02*
X0181135Y0135286D01*
X0179684Y0135286D01*
X0179200Y0134802D01*
X0179200Y0133834D01*
X0179684Y0133351D01*
X0181135Y0133351D01*
X0179684Y0133351D01*
X0179200Y0133834D01*
X0179200Y0134802D01*
X0179684Y0135286D01*
X0181135Y0135286D01*
X0181135Y0132383D01*
X0180168Y0133351D02*
X0179200Y0132383D01*
X0180168Y0133351D01*
X0178189Y0132867D02*
X0178189Y0134802D01*
X0177705Y0135286D01*
X0176737Y0135286D01*
X0176254Y0134802D01*
X0176254Y0132867D01*
X0176737Y0132383D01*
X0177705Y0132383D01*
X0178189Y0132867D01*
X0177705Y0132383D01*
X0176737Y0132383D01*
X0176254Y0132867D01*
X0176254Y0134802D01*
X0176737Y0135286D01*
X0177705Y0135286D01*
X0178189Y0134802D01*
X0178189Y0132867D01*
X0175242Y0132867D02*
X0175242Y0134802D01*
X0174758Y0135286D01*
X0173791Y0135286D01*
X0173307Y0134802D01*
X0173791Y0135286D01*
X0174758Y0135286D01*
X0175242Y0134802D01*
X0175242Y0132867D01*
X0174758Y0132383D01*
X0173791Y0132383D01*
X0173307Y0132867D01*
X0173307Y0133834D01*
X0174275Y0133834D01*
X0173307Y0133834D01*
X0173307Y0132867D01*
X0173791Y0132383D01*
X0174758Y0132383D01*
X0175242Y0132867D01*
X0173852Y0137544D02*
X0170950Y0137544D01*
X0171917Y0137544D02*
X0171917Y0138995D01*
X0172401Y0139478D01*
X0173369Y0139478D01*
X0173852Y0138995D01*
X0173852Y0137544D01*
X0173852Y0140490D02*
X0170950Y0140490D01*
X0171917Y0141458D01*
X0170950Y0142425D01*
X0173852Y0142425D01*
X0173852Y0143437D02*
X0173852Y0144888D01*
X0173369Y0145372D01*
X0172401Y0145372D01*
X0171917Y0144888D01*
X0171917Y0143437D01*
X0170950Y0143437D02*
X0173852Y0143437D01*
X0171917Y0144404D02*
X0170950Y0145372D01*
X0170950Y0149490D02*
X0173852Y0149490D01*
X0173852Y0150941D01*
X0173369Y0151425D01*
X0172401Y0151425D01*
X0171917Y0150941D01*
X0171917Y0149490D01*
X0171917Y0150458D02*
X0170950Y0151425D01*
X0170950Y0152437D02*
X0173852Y0154372D01*
X0173852Y0152437D02*
X0170950Y0154372D01*
X0171434Y0157544D02*
X0170950Y0158027D01*
X0170950Y0158995D01*
X0171434Y0159478D01*
X0171434Y0157544D02*
X0173369Y0157544D01*
X0173852Y0158027D01*
X0173852Y0158995D01*
X0173369Y0159478D01*
X0173852Y0160490D02*
X0173852Y0162425D01*
X0173852Y0161458D02*
X0170950Y0161458D01*
X0169350Y0161851D02*
X0167899Y0161851D01*
X0167415Y0162334D01*
X0167415Y0163302D01*
X0167899Y0163786D01*
X0169350Y0163786D01*
X0169350Y0160883D01*
X0168383Y0161851D02*
X0167415Y0160883D01*
X0166403Y0161367D02*
X0165920Y0160883D01*
X0164952Y0160883D01*
X0164469Y0161367D01*
X0164469Y0161851D01*
X0164952Y0162334D01*
X0165920Y0162334D01*
X0166403Y0162818D01*
X0166403Y0163302D01*
X0165920Y0163786D01*
X0164952Y0163786D01*
X0164469Y0163302D01*
X0163457Y0163786D02*
X0161522Y0163786D01*
X0162489Y0163786D02*
X0162489Y0160883D01*
X0160350Y0161367D02*
X0160350Y0163302D01*
X0159866Y0163786D01*
X0158899Y0163786D01*
X0158415Y0163302D01*
X0158415Y0162334D02*
X0159383Y0162334D01*
X0158415Y0162334D02*
X0158415Y0161367D01*
X0158899Y0160883D01*
X0159866Y0160883D01*
X0160350Y0161367D01*
X0157403Y0160883D02*
X0157403Y0163786D01*
X0155469Y0160883D01*
X0155469Y0163786D01*
X0154457Y0163786D02*
X0153006Y0163786D01*
X0152522Y0163302D01*
X0152522Y0161367D01*
X0153006Y0160883D01*
X0154457Y0160883D01*
X0154457Y0163786D01*
X0150350Y0163786D02*
X0148899Y0163786D01*
X0148415Y0163302D01*
X0148415Y0162334D01*
X0148899Y0161851D01*
X0150350Y0161851D01*
X0150350Y0160883D02*
X0150350Y0163786D01*
X0147403Y0163786D02*
X0147403Y0160883D01*
X0146436Y0161851D01*
X0145469Y0160883D01*
X0145469Y0163786D01*
X0144457Y0163786D02*
X0143006Y0163786D01*
X0142522Y0163302D01*
X0142522Y0162334D01*
X0143006Y0161851D01*
X0144457Y0161851D01*
X0143489Y0161851D02*
X0142522Y0160883D01*
X0144457Y0160883D02*
X0144457Y0163786D01*
X0170950Y0163920D02*
X0171434Y0163437D01*
X0170950Y0163920D02*
X0170950Y0164888D01*
X0171434Y0165372D01*
X0171917Y0165372D01*
X0172401Y0164888D01*
X0172401Y0163920D01*
X0172885Y0163437D01*
X0173369Y0163437D01*
X0173852Y0163920D01*
X0173852Y0164888D01*
X0173369Y0165372D01*
X0174650Y0168383D02*
X0177552Y0168383D01*
X0176585Y0169351D01*
X0177552Y0170318D01*
X0174650Y0170318D01*
X0175134Y0171330D02*
X0174650Y0171813D01*
X0174650Y0172781D01*
X0175134Y0173265D01*
X0175134Y0174276D02*
X0174650Y0174760D01*
X0174650Y0175727D01*
X0175134Y0176211D01*
X0177552Y0176211D01*
X0177552Y0174276D02*
X0175134Y0174276D01*
X0177069Y0173265D02*
X0177552Y0172781D01*
X0177552Y0171813D01*
X0177069Y0171330D01*
X0175134Y0171330D01*
X0175617Y0180169D02*
X0175617Y0181620D01*
X0176101Y0182104D01*
X0177069Y0182104D01*
X0177552Y0181620D01*
X0177552Y0180169D01*
X0174650Y0180169D01*
X0174650Y0183116D02*
X0177552Y0183116D01*
X0177552Y0184567D01*
X0177069Y0185051D01*
X0176101Y0185051D01*
X0175617Y0184567D01*
X0175617Y0183116D01*
X0175617Y0184083D02*
X0174650Y0185051D01*
X0175134Y0186062D02*
X0174650Y0186546D01*
X0174650Y0187513D01*
X0175134Y0187997D01*
X0177069Y0187997D01*
X0177552Y0187513D01*
X0177552Y0186546D01*
X0177069Y0186062D01*
X0175134Y0186062D01*
X0175134Y0189009D02*
X0174650Y0189492D01*
X0174650Y0190460D01*
X0175134Y0190944D01*
X0176101Y0190944D01*
X0176101Y0189976D01*
X0175134Y0189009D02*
X0177069Y0189009D01*
X0177552Y0189492D01*
X0177552Y0190460D01*
X0177069Y0190944D01*
X0165350Y0190302D02*
X0165350Y0189818D01*
X0164866Y0189334D01*
X0163899Y0189334D01*
X0163415Y0188851D01*
X0163415Y0188367D01*
X0163899Y0187883D01*
X0164866Y0187883D01*
X0165350Y0188367D01*
X0165350Y0190302D02*
X0164866Y0190786D01*
X0163899Y0190786D01*
X0163415Y0190302D01*
X0162403Y0190786D02*
X0162403Y0187883D01*
X0161436Y0188851D01*
X0160469Y0187883D01*
X0160469Y0190786D01*
X0159457Y0190302D02*
X0159457Y0188367D01*
X0158973Y0187883D01*
X0158006Y0187883D01*
X0157522Y0188367D01*
X0156510Y0187883D02*
X0154575Y0187883D01*
X0153564Y0187883D02*
X0153564Y0190786D01*
X0153080Y0189334D02*
X0151629Y0187883D01*
X0153564Y0188851D02*
X0151629Y0190786D01*
X0148350Y0190302D02*
X0148350Y0189818D01*
X0147866Y0189334D01*
X0146899Y0189334D01*
X0146415Y0188851D01*
X0146415Y0188367D01*
X0146899Y0187883D01*
X0147866Y0187883D01*
X0148350Y0188367D01*
X0148350Y0190302D02*
X0147866Y0190786D01*
X0146899Y0190786D01*
X0146415Y0190302D01*
X0145403Y0190786D02*
X0145403Y0187883D01*
X0144436Y0188851D01*
X0143469Y0187883D01*
X0143469Y0190786D01*
X0142457Y0190786D02*
X0141006Y0190786D01*
X0140522Y0190302D01*
X0140522Y0188367D01*
X0141006Y0187883D01*
X0142457Y0187883D01*
X0142457Y0190786D01*
X0139510Y0190786D02*
X0138543Y0190786D01*
X0139027Y0190786D02*
X0139027Y0187883D01*
X0139510Y0187883D02*
X0138543Y0187883D01*
X0137546Y0188367D02*
X0137062Y0187883D01*
X0136095Y0187883D01*
X0135611Y0188367D01*
X0135611Y0190302D01*
X0136095Y0190786D01*
X0137062Y0190786D01*
X0137546Y0190302D01*
X0137546Y0188367D01*
X0156510Y0187883D02*
X0156510Y0190786D01*
X0157522Y0190302D02*
X0158006Y0190786D01*
X0158973Y0190786D01*
X0159457Y0190302D01*
X0196450Y0164888D02*
X0196450Y0163920D01*
X0196934Y0163437D01*
X0197901Y0163920D02*
X0197901Y0164888D01*
X0197417Y0165372D01*
X0196934Y0165372D01*
X0196450Y0164888D01*
X0197901Y0163920D02*
X0198385Y0163437D01*
X0198869Y0163437D01*
X0199352Y0163920D01*
X0199352Y0164888D01*
X0198869Y0165372D01*
X0199352Y0162425D02*
X0199352Y0160490D01*
X0199352Y0161458D02*
X0196450Y0161458D01*
X0196450Y0159478D02*
X0197417Y0158511D01*
X0197417Y0158995D02*
X0197417Y0157544D01*
X0196450Y0157544D02*
X0199352Y0157544D01*
X0199352Y0158995D01*
X0198869Y0159478D01*
X0197901Y0159478D01*
X0197417Y0158995D01*
X0196450Y0153872D02*
X0199352Y0151937D01*
X0199352Y0150925D02*
X0199352Y0148990D01*
X0199352Y0149958D02*
X0196450Y0149958D01*
X0196450Y0151937D02*
X0199352Y0153872D01*
X0198869Y0145372D02*
X0196934Y0145372D01*
X0196450Y0144888D01*
X0196450Y0143437D01*
X0199352Y0143437D01*
X0199352Y0144888D01*
X0198869Y0145372D01*
X0199352Y0142425D02*
X0196450Y0142425D01*
X0199352Y0140490D01*
X0196450Y0140490D01*
X0196934Y0139478D02*
X0197901Y0139478D01*
X0197901Y0138511D01*
X0196934Y0137544D02*
X0196450Y0138027D01*
X0196450Y0138995D01*
X0196934Y0139478D01*
X0196934Y0137544D02*
X0198869Y0137544D01*
X0199352Y0138027D01*
X0199352Y0138995D01*
X0198869Y0139478D01*
X0196850Y0135286D02*
X0196850Y0132383D01*
X0195883Y0133351D01*
X0194915Y0132383D01*
X0194915Y0135286D01*
X0194915Y0132383D01*
X0195883Y0133351D01*
X0196850Y0132383D01*
X0196850Y0135286D01*
X0193903Y0135286D02*
X0192936Y0135286D01*
X0193903Y0135286D01*
X0193420Y0135286D02*
X0193420Y0132383D01*
X0193420Y0135286D01*
X0191939Y0135286D02*
X0191939Y0132383D01*
X0191939Y0135286D01*
X0190004Y0135286D01*
X0191939Y0135286D01*
X0191939Y0133834D02*
X0190972Y0133834D01*
X0191939Y0133834D01*
X0192936Y0132383D02*
X0193903Y0132383D01*
X0192936Y0132383D01*
X0188993Y0132383D02*
X0188025Y0132383D01*
X0188993Y0132383D01*
X0188509Y0132383D02*
X0188509Y0135286D01*
X0188509Y0132383D01*
X0188993Y0135286D02*
X0188025Y0135286D01*
X0188993Y0135286D01*
X0186952Y0112740D02*
X0184050Y0112740D01*
X0211100Y0066472D02*
X0214002Y0066472D01*
X0213035Y0065504D01*
X0214002Y0064537D01*
X0211100Y0064537D01*
X0211100Y0063525D02*
X0214002Y0063525D01*
X0214002Y0061590D02*
X0211100Y0061590D01*
X0212067Y0062558D01*
X0211100Y0063525D01*
X0212551Y0060578D02*
X0212067Y0060095D01*
X0212067Y0058644D01*
X0211100Y0058644D02*
X0214002Y0058644D01*
X0214002Y0060095D01*
X0213519Y0060578D01*
X0212551Y0060578D01*
X0212267Y0054172D02*
X0214202Y0054172D01*
X0212267Y0054172D02*
X0211300Y0053204D01*
X0212267Y0052237D01*
X0214202Y0052237D01*
X0214202Y0051225D02*
X0214202Y0049290D01*
X0212751Y0049290D01*
X0213235Y0050258D01*
X0213235Y0050741D01*
X0212751Y0051225D01*
X0211784Y0051225D01*
X0211300Y0050741D01*
X0211300Y0049774D01*
X0211784Y0049290D01*
D11*
X0118900Y0096700D02*
X0118533Y0096333D01*
X0117799Y0096333D01*
X0117432Y0096700D01*
X0117432Y0097067D01*
X0117799Y0097434D01*
X0118533Y0097434D01*
X0118900Y0097801D01*
X0118900Y0098168D01*
X0118533Y0098535D01*
X0117799Y0098535D01*
X0117432Y0098168D01*
X0116690Y0098168D02*
X0116690Y0096700D01*
X0116323Y0096333D01*
X0115589Y0096333D01*
X0115222Y0096700D01*
X0115222Y0098168D01*
X0115589Y0098535D01*
X0116323Y0098535D01*
X0116690Y0098168D01*
X0114480Y0098535D02*
X0114480Y0096333D01*
X0114480Y0097434D02*
X0113746Y0097434D01*
X0114480Y0098535D02*
X0113012Y0098535D01*
X0112270Y0098535D02*
X0110802Y0098535D01*
X0111536Y0098535D02*
X0111536Y0096333D01*
X0110060Y0096333D02*
X0110060Y0097801D01*
X0109327Y0098535D01*
X0108593Y0097801D01*
X0108593Y0096333D01*
X0107851Y0096333D02*
X0107851Y0098535D01*
X0106750Y0098535D01*
X0106383Y0098168D01*
X0106383Y0097434D01*
X0106750Y0097067D01*
X0107851Y0097067D01*
X0108593Y0097434D02*
X0110060Y0097434D01*
X0109694Y0102333D02*
X0108960Y0102333D01*
X0108593Y0102700D01*
X0108593Y0104168D01*
X0108960Y0104535D01*
X0109694Y0104535D01*
X0110060Y0104168D01*
X0110060Y0102700D01*
X0109694Y0102333D01*
X0110802Y0102333D02*
X0110802Y0104535D01*
X0112270Y0104535D02*
X0112270Y0102333D01*
X0111536Y0103067D01*
X0110802Y0102333D01*
X0113746Y0102333D02*
X0113746Y0104535D01*
X0114480Y0104535D02*
X0113012Y0104535D01*
X0115222Y0104535D02*
X0116690Y0104535D01*
X0116690Y0102333D01*
X0115222Y0102333D01*
X0115956Y0103434D02*
X0116690Y0103434D01*
X0117432Y0102333D02*
X0117432Y0104535D01*
X0118900Y0104535D02*
X0117432Y0102333D01*
X0118900Y0102333D02*
X0118900Y0104535D01*
X0118900Y0108333D02*
X0118166Y0109067D01*
X0117432Y0108333D01*
X0117432Y0110535D01*
X0116690Y0110535D02*
X0116690Y0108333D01*
X0115222Y0108333D01*
X0114480Y0108333D02*
X0114480Y0109801D01*
X0113746Y0110535D01*
X0113012Y0109801D01*
X0113012Y0108333D01*
X0112270Y0108333D02*
X0112270Y0110535D01*
X0110802Y0108333D01*
X0110802Y0110535D01*
X0113012Y0109434D02*
X0114480Y0109434D01*
X0118900Y0110535D02*
X0118900Y0108333D01*
X0107851Y0104535D02*
X0107851Y0102333D01*
X0107851Y0103067D02*
X0106750Y0103067D01*
X0106383Y0103434D01*
X0106383Y0104168D01*
X0106750Y0104535D01*
X0107851Y0104535D01*
X0107117Y0103067D02*
X0106383Y0102333D01*
X0105641Y0102333D02*
X0105641Y0104535D01*
X0105274Y0103434D02*
X0104173Y0102333D01*
X0105641Y0103067D02*
X0104173Y0104535D01*
X0080083Y0085635D02*
X0080083Y0083433D01*
X0079349Y0084167D01*
X0078615Y0083433D01*
X0078615Y0085635D01*
X0077873Y0085635D02*
X0077139Y0085635D01*
X0077506Y0085635D02*
X0077506Y0083433D01*
X0077873Y0083433D02*
X0077139Y0083433D01*
X0076400Y0083433D02*
X0076400Y0085635D01*
X0074932Y0085635D01*
X0074190Y0085635D02*
X0073456Y0085635D01*
X0073823Y0085635D02*
X0073823Y0083433D01*
X0074190Y0083433D02*
X0073456Y0083433D01*
X0073085Y0082035D02*
X0071984Y0082035D01*
X0071617Y0081668D01*
X0071617Y0080934D01*
X0071984Y0080567D01*
X0073085Y0080567D01*
X0073085Y0079833D02*
X0073085Y0082035D01*
X0073827Y0082035D02*
X0073827Y0080200D01*
X0074194Y0079833D01*
X0074928Y0079833D01*
X0075295Y0080200D01*
X0075295Y0082035D01*
X0076037Y0082035D02*
X0077505Y0082035D01*
X0076771Y0082035D02*
X0076771Y0079833D01*
X0078247Y0079833D02*
X0079715Y0079833D01*
X0079715Y0082035D01*
X0078247Y0082035D01*
X0078981Y0080934D02*
X0079715Y0080934D01*
X0080457Y0080567D02*
X0080457Y0080200D01*
X0080824Y0079833D01*
X0081558Y0079833D01*
X0081925Y0080200D01*
X0081558Y0080934D02*
X0080824Y0080934D01*
X0080457Y0080567D01*
X0080457Y0081668D02*
X0080824Y0082035D01*
X0081558Y0082035D01*
X0081925Y0081668D01*
X0081925Y0081301D01*
X0081558Y0080934D01*
X0076400Y0084534D02*
X0075666Y0084534D01*
X0154851Y0127833D02*
X0154851Y0130035D01*
X0155585Y0130035D02*
X0154117Y0130035D01*
X0156327Y0130035D02*
X0157795Y0130035D01*
X0157795Y0127833D01*
X0156327Y0127833D01*
X0157061Y0128934D02*
X0157795Y0128934D01*
X0158537Y0128567D02*
X0158537Y0128200D01*
X0158904Y0127833D01*
X0159638Y0127833D01*
X0160005Y0128200D01*
X0159638Y0128934D02*
X0158904Y0128934D01*
X0158537Y0128567D01*
X0158537Y0129668D02*
X0158904Y0130035D01*
X0159638Y0130035D01*
X0160005Y0129668D01*
X0160005Y0129301D01*
X0159638Y0128934D01*
X0160747Y0130035D02*
X0162215Y0130035D01*
X0162215Y0127833D01*
X0160747Y0127833D01*
X0161481Y0128934D02*
X0162215Y0128934D01*
X0162957Y0128934D02*
X0163324Y0128567D01*
X0164425Y0128567D01*
X0164425Y0127833D02*
X0164425Y0130035D01*
X0163324Y0130035D01*
X0162957Y0129668D01*
X0162957Y0128934D01*
X0163691Y0128567D02*
X0162957Y0127833D01*
X0162215Y0131433D02*
X0162215Y0133635D01*
X0161481Y0132901D01*
X0160747Y0133635D01*
X0160747Y0131433D01*
X0160005Y0131800D02*
X0159638Y0131433D01*
X0158904Y0131433D01*
X0158537Y0131800D01*
X0157795Y0131800D02*
X0157428Y0131433D01*
X0156694Y0131433D01*
X0156327Y0131800D01*
X0156327Y0133635D01*
X0157795Y0133635D02*
X0157795Y0131800D01*
X0158537Y0133268D02*
X0158904Y0133635D01*
X0159638Y0133635D01*
X0160005Y0133268D01*
X0160005Y0131800D01*
D12*
X0148500Y0147233D02*
X0148503Y0147478D01*
X0148512Y0147724D01*
X0148527Y0147969D01*
X0148548Y0148213D01*
X0148575Y0148457D01*
X0148608Y0148700D01*
X0148647Y0148943D01*
X0148692Y0149184D01*
X0148743Y0149424D01*
X0148800Y0149663D01*
X0148862Y0149900D01*
X0148931Y0150136D01*
X0149005Y0150370D01*
X0149085Y0150602D01*
X0149170Y0150832D01*
X0149261Y0151060D01*
X0149358Y0151285D01*
X0149460Y0151509D01*
X0149568Y0151729D01*
X0149681Y0151947D01*
X0149799Y0152162D01*
X0149923Y0152374D01*
X0150051Y0152583D01*
X0150185Y0152789D01*
X0150324Y0152991D01*
X0150468Y0153190D01*
X0150617Y0153385D01*
X0150770Y0153577D01*
X0150928Y0153765D01*
X0151090Y0153949D01*
X0151258Y0154128D01*
X0151429Y0154304D01*
X0151605Y0154475D01*
X0151784Y0154643D01*
X0151968Y0154805D01*
X0152156Y0154963D01*
X0152348Y0155116D01*
X0152543Y0155265D01*
X0152742Y0155409D01*
X0152944Y0155548D01*
X0153150Y0155682D01*
X0153359Y0155810D01*
X0153571Y0155934D01*
X0153786Y0156052D01*
X0154004Y0156165D01*
X0154224Y0156273D01*
X0154448Y0156375D01*
X0154673Y0156472D01*
X0154901Y0156563D01*
X0155131Y0156648D01*
X0155363Y0156728D01*
X0155597Y0156802D01*
X0155833Y0156871D01*
X0156070Y0156933D01*
X0156309Y0156990D01*
X0156549Y0157041D01*
X0156790Y0157086D01*
X0157033Y0157125D01*
X0157276Y0157158D01*
X0157520Y0157185D01*
X0157764Y0157206D01*
X0158009Y0157221D01*
X0158255Y0157230D01*
X0158500Y0157233D01*
X0158745Y0157230D01*
X0158991Y0157221D01*
X0159236Y0157206D01*
X0159480Y0157185D01*
X0159724Y0157158D01*
X0159967Y0157125D01*
X0160210Y0157086D01*
X0160451Y0157041D01*
X0160691Y0156990D01*
X0160930Y0156933D01*
X0161167Y0156871D01*
X0161403Y0156802D01*
X0161637Y0156728D01*
X0161869Y0156648D01*
X0162099Y0156563D01*
X0162327Y0156472D01*
X0162552Y0156375D01*
X0162776Y0156273D01*
X0162996Y0156165D01*
X0163214Y0156052D01*
X0163429Y0155934D01*
X0163641Y0155810D01*
X0163850Y0155682D01*
X0164056Y0155548D01*
X0164258Y0155409D01*
X0164457Y0155265D01*
X0164652Y0155116D01*
X0164844Y0154963D01*
X0165032Y0154805D01*
X0165216Y0154643D01*
X0165395Y0154475D01*
X0165571Y0154304D01*
X0165742Y0154128D01*
X0165910Y0153949D01*
X0166072Y0153765D01*
X0166230Y0153577D01*
X0166383Y0153385D01*
X0166532Y0153190D01*
X0166676Y0152991D01*
X0166815Y0152789D01*
X0166949Y0152583D01*
X0167077Y0152374D01*
X0167201Y0152162D01*
X0167319Y0151947D01*
X0167432Y0151729D01*
X0167540Y0151509D01*
X0167642Y0151285D01*
X0167739Y0151060D01*
X0167830Y0150832D01*
X0167915Y0150602D01*
X0167995Y0150370D01*
X0168069Y0150136D01*
X0168138Y0149900D01*
X0168200Y0149663D01*
X0168257Y0149424D01*
X0168308Y0149184D01*
X0168353Y0148943D01*
X0168392Y0148700D01*
X0168425Y0148457D01*
X0168452Y0148213D01*
X0168473Y0147969D01*
X0168488Y0147724D01*
X0168497Y0147478D01*
X0168500Y0147233D01*
X0168497Y0146988D01*
X0168488Y0146742D01*
X0168473Y0146497D01*
X0168452Y0146253D01*
X0168425Y0146009D01*
X0168392Y0145766D01*
X0168353Y0145523D01*
X0168308Y0145282D01*
X0168257Y0145042D01*
X0168200Y0144803D01*
X0168138Y0144566D01*
X0168069Y0144330D01*
X0167995Y0144096D01*
X0167915Y0143864D01*
X0167830Y0143634D01*
X0167739Y0143406D01*
X0167642Y0143181D01*
X0167540Y0142957D01*
X0167432Y0142737D01*
X0167319Y0142519D01*
X0167201Y0142304D01*
X0167077Y0142092D01*
X0166949Y0141883D01*
X0166815Y0141677D01*
X0166676Y0141475D01*
X0166532Y0141276D01*
X0166383Y0141081D01*
X0166230Y0140889D01*
X0166072Y0140701D01*
X0165910Y0140517D01*
X0165742Y0140338D01*
X0165571Y0140162D01*
X0165395Y0139991D01*
X0165216Y0139823D01*
X0165032Y0139661D01*
X0164844Y0139503D01*
X0164652Y0139350D01*
X0164457Y0139201D01*
X0164258Y0139057D01*
X0164056Y0138918D01*
X0163850Y0138784D01*
X0163641Y0138656D01*
X0163429Y0138532D01*
X0163214Y0138414D01*
X0162996Y0138301D01*
X0162776Y0138193D01*
X0162552Y0138091D01*
X0162327Y0137994D01*
X0162099Y0137903D01*
X0161869Y0137818D01*
X0161637Y0137738D01*
X0161403Y0137664D01*
X0161167Y0137595D01*
X0160930Y0137533D01*
X0160691Y0137476D01*
X0160451Y0137425D01*
X0160210Y0137380D01*
X0159967Y0137341D01*
X0159724Y0137308D01*
X0159480Y0137281D01*
X0159236Y0137260D01*
X0158991Y0137245D01*
X0158745Y0137236D01*
X0158500Y0137233D01*
X0158255Y0137236D01*
X0158009Y0137245D01*
X0157764Y0137260D01*
X0157520Y0137281D01*
X0157276Y0137308D01*
X0157033Y0137341D01*
X0156790Y0137380D01*
X0156549Y0137425D01*
X0156309Y0137476D01*
X0156070Y0137533D01*
X0155833Y0137595D01*
X0155597Y0137664D01*
X0155363Y0137738D01*
X0155131Y0137818D01*
X0154901Y0137903D01*
X0154673Y0137994D01*
X0154448Y0138091D01*
X0154224Y0138193D01*
X0154004Y0138301D01*
X0153786Y0138414D01*
X0153571Y0138532D01*
X0153359Y0138656D01*
X0153150Y0138784D01*
X0152944Y0138918D01*
X0152742Y0139057D01*
X0152543Y0139201D01*
X0152348Y0139350D01*
X0152156Y0139503D01*
X0151968Y0139661D01*
X0151784Y0139823D01*
X0151605Y0139991D01*
X0151429Y0140162D01*
X0151258Y0140338D01*
X0151090Y0140517D01*
X0150928Y0140701D01*
X0150770Y0140889D01*
X0150617Y0141081D01*
X0150468Y0141276D01*
X0150324Y0141475D01*
X0150185Y0141677D01*
X0150051Y0141883D01*
X0149923Y0142092D01*
X0149799Y0142304D01*
X0149681Y0142519D01*
X0149568Y0142737D01*
X0149460Y0142957D01*
X0149358Y0143181D01*
X0149261Y0143406D01*
X0149170Y0143634D01*
X0149085Y0143864D01*
X0149005Y0144096D01*
X0148931Y0144330D01*
X0148862Y0144566D01*
X0148800Y0144803D01*
X0148743Y0145042D01*
X0148692Y0145282D01*
X0148647Y0145523D01*
X0148608Y0145766D01*
X0148575Y0146009D01*
X0148548Y0146253D01*
X0148527Y0146497D01*
X0148512Y0146742D01*
X0148503Y0146988D01*
X0148500Y0147233D01*
X0133500Y0118233D02*
X0008500Y0118233D01*
X0008500Y0188233D01*
X0133500Y0188233D01*
X0133500Y0118233D01*
X0099713Y0085620D02*
X0087870Y0085620D01*
X0087870Y0076502D01*
X0087870Y0085620D02*
X0099713Y0085620D01*
X0099713Y0080683D01*
X0123303Y0080683D01*
X0123303Y0076502D01*
X0123303Y0080683D02*
X0123303Y0029502D01*
X0123303Y0038683D01*
X0123303Y0029502D02*
X0123301Y0029378D01*
X0123295Y0029255D01*
X0123286Y0029131D01*
X0123272Y0029009D01*
X0123255Y0028886D01*
X0123233Y0028764D01*
X0123208Y0028643D01*
X0123179Y0028523D01*
X0123147Y0028404D01*
X0123110Y0028285D01*
X0123070Y0028168D01*
X0123027Y0028053D01*
X0122979Y0027938D01*
X0122928Y0027826D01*
X0122874Y0027715D01*
X0122816Y0027605D01*
X0122755Y0027498D01*
X0122690Y0027392D01*
X0122622Y0027289D01*
X0122551Y0027188D01*
X0122477Y0027089D01*
X0122400Y0026992D01*
X0122319Y0026898D01*
X0122236Y0026807D01*
X0122150Y0026718D01*
X0122061Y0026632D01*
X0121970Y0026549D01*
X0121876Y0026468D01*
X0121779Y0026391D01*
X0121680Y0026317D01*
X0121579Y0026246D01*
X0121476Y0026178D01*
X0121370Y0026113D01*
X0121263Y0026052D01*
X0121153Y0025994D01*
X0121042Y0025940D01*
X0120930Y0025889D01*
X0120815Y0025841D01*
X0120700Y0025798D01*
X0120583Y0025758D01*
X0120464Y0025721D01*
X0120345Y0025689D01*
X0120225Y0025660D01*
X0120104Y0025635D01*
X0119982Y0025613D01*
X0119859Y0025596D01*
X0119737Y0025582D01*
X0119613Y0025573D01*
X0119490Y0025567D01*
X0119366Y0025565D01*
X0091807Y0025565D01*
X0119366Y0025565D01*
X0119490Y0025567D01*
X0119613Y0025573D01*
X0119737Y0025582D01*
X0119859Y0025596D01*
X0119982Y0025613D01*
X0120104Y0025635D01*
X0120225Y0025660D01*
X0120345Y0025689D01*
X0120464Y0025721D01*
X0120583Y0025758D01*
X0120700Y0025798D01*
X0120815Y0025841D01*
X0120930Y0025889D01*
X0121042Y0025940D01*
X0121153Y0025994D01*
X0121263Y0026052D01*
X0121370Y0026113D01*
X0121476Y0026178D01*
X0121579Y0026246D01*
X0121680Y0026317D01*
X0121779Y0026391D01*
X0121876Y0026468D01*
X0121970Y0026549D01*
X0122061Y0026632D01*
X0122150Y0026718D01*
X0122236Y0026807D01*
X0122319Y0026898D01*
X0122400Y0026992D01*
X0122477Y0027089D01*
X0122551Y0027188D01*
X0122622Y0027289D01*
X0122690Y0027392D01*
X0122755Y0027498D01*
X0122816Y0027605D01*
X0122874Y0027715D01*
X0122928Y0027826D01*
X0122979Y0027938D01*
X0123027Y0028053D01*
X0123070Y0028168D01*
X0123110Y0028285D01*
X0123147Y0028404D01*
X0123179Y0028523D01*
X0123208Y0028643D01*
X0123233Y0028764D01*
X0123255Y0028886D01*
X0123272Y0029009D01*
X0123286Y0029131D01*
X0123295Y0029255D01*
X0123301Y0029378D01*
X0123303Y0029502D01*
X0123303Y0051502D02*
X0123303Y0063683D01*
X0123303Y0080683D02*
X0099713Y0080683D01*
X0099713Y0085620D01*
X0087870Y0085620D02*
X0087870Y0029502D01*
X0087870Y0038620D01*
X0087870Y0029502D02*
X0087872Y0029378D01*
X0087878Y0029255D01*
X0087887Y0029131D01*
X0087901Y0029009D01*
X0087918Y0028886D01*
X0087940Y0028764D01*
X0087965Y0028643D01*
X0087994Y0028523D01*
X0088026Y0028404D01*
X0088063Y0028285D01*
X0088103Y0028168D01*
X0088146Y0028053D01*
X0088194Y0027938D01*
X0088245Y0027826D01*
X0088299Y0027715D01*
X0088357Y0027605D01*
X0088418Y0027498D01*
X0088483Y0027392D01*
X0088551Y0027289D01*
X0088622Y0027188D01*
X0088696Y0027089D01*
X0088773Y0026992D01*
X0088854Y0026898D01*
X0088937Y0026807D01*
X0089023Y0026718D01*
X0089112Y0026632D01*
X0089203Y0026549D01*
X0089297Y0026468D01*
X0089394Y0026391D01*
X0089493Y0026317D01*
X0089594Y0026246D01*
X0089697Y0026178D01*
X0089803Y0026113D01*
X0089910Y0026052D01*
X0090020Y0025994D01*
X0090131Y0025940D01*
X0090243Y0025889D01*
X0090358Y0025841D01*
X0090473Y0025798D01*
X0090590Y0025758D01*
X0090709Y0025721D01*
X0090828Y0025689D01*
X0090948Y0025660D01*
X0091069Y0025635D01*
X0091191Y0025613D01*
X0091314Y0025596D01*
X0091436Y0025582D01*
X0091560Y0025573D01*
X0091683Y0025567D01*
X0091807Y0025565D01*
X0091683Y0025567D01*
X0091560Y0025573D01*
X0091436Y0025582D01*
X0091314Y0025596D01*
X0091191Y0025613D01*
X0091069Y0025635D01*
X0090948Y0025660D01*
X0090828Y0025689D01*
X0090709Y0025721D01*
X0090590Y0025758D01*
X0090473Y0025798D01*
X0090358Y0025841D01*
X0090243Y0025889D01*
X0090131Y0025940D01*
X0090020Y0025994D01*
X0089910Y0026052D01*
X0089803Y0026113D01*
X0089697Y0026178D01*
X0089594Y0026246D01*
X0089493Y0026317D01*
X0089394Y0026391D01*
X0089297Y0026468D01*
X0089203Y0026549D01*
X0089112Y0026632D01*
X0089023Y0026718D01*
X0088937Y0026807D01*
X0088854Y0026898D01*
X0088773Y0026992D01*
X0088696Y0027089D01*
X0088622Y0027188D01*
X0088551Y0027289D01*
X0088483Y0027392D01*
X0088418Y0027498D01*
X0088357Y0027605D01*
X0088299Y0027715D01*
X0088245Y0027826D01*
X0088194Y0027938D01*
X0088146Y0028053D01*
X0088103Y0028168D01*
X0088063Y0028285D01*
X0088026Y0028404D01*
X0087994Y0028523D01*
X0087965Y0028643D01*
X0087940Y0028764D01*
X0087918Y0028886D01*
X0087901Y0029009D01*
X0087887Y0029131D01*
X0087878Y0029255D01*
X0087872Y0029378D01*
X0087870Y0029502D01*
X0087870Y0051502D02*
X0087870Y0063620D01*
X0050500Y0073733D02*
X0050503Y0073978D01*
X0050512Y0074224D01*
X0050527Y0074469D01*
X0050548Y0074713D01*
X0050575Y0074957D01*
X0050608Y0075200D01*
X0050647Y0075443D01*
X0050692Y0075684D01*
X0050743Y0075924D01*
X0050800Y0076163D01*
X0050862Y0076400D01*
X0050931Y0076636D01*
X0051005Y0076870D01*
X0051085Y0077102D01*
X0051170Y0077332D01*
X0051261Y0077560D01*
X0051358Y0077785D01*
X0051460Y0078009D01*
X0051568Y0078229D01*
X0051681Y0078447D01*
X0051799Y0078662D01*
X0051923Y0078874D01*
X0052051Y0079083D01*
X0052185Y0079289D01*
X0052324Y0079491D01*
X0052468Y0079690D01*
X0052617Y0079885D01*
X0052770Y0080077D01*
X0052928Y0080265D01*
X0053090Y0080449D01*
X0053258Y0080628D01*
X0053429Y0080804D01*
X0053605Y0080975D01*
X0053784Y0081143D01*
X0053968Y0081305D01*
X0054156Y0081463D01*
X0054348Y0081616D01*
X0054543Y0081765D01*
X0054742Y0081909D01*
X0054944Y0082048D01*
X0055150Y0082182D01*
X0055359Y0082310D01*
X0055571Y0082434D01*
X0055786Y0082552D01*
X0056004Y0082665D01*
X0056224Y0082773D01*
X0056448Y0082875D01*
X0056673Y0082972D01*
X0056901Y0083063D01*
X0057131Y0083148D01*
X0057363Y0083228D01*
X0057597Y0083302D01*
X0057833Y0083371D01*
X0058070Y0083433D01*
X0058309Y0083490D01*
X0058549Y0083541D01*
X0058790Y0083586D01*
X0059033Y0083625D01*
X0059276Y0083658D01*
X0059520Y0083685D01*
X0059764Y0083706D01*
X0060009Y0083721D01*
X0060255Y0083730D01*
X0060500Y0083733D01*
X0060745Y0083730D01*
X0060991Y0083721D01*
X0061236Y0083706D01*
X0061480Y0083685D01*
X0061724Y0083658D01*
X0061967Y0083625D01*
X0062210Y0083586D01*
X0062451Y0083541D01*
X0062691Y0083490D01*
X0062930Y0083433D01*
X0063167Y0083371D01*
X0063403Y0083302D01*
X0063637Y0083228D01*
X0063869Y0083148D01*
X0064099Y0083063D01*
X0064327Y0082972D01*
X0064552Y0082875D01*
X0064776Y0082773D01*
X0064996Y0082665D01*
X0065214Y0082552D01*
X0065429Y0082434D01*
X0065641Y0082310D01*
X0065850Y0082182D01*
X0066056Y0082048D01*
X0066258Y0081909D01*
X0066457Y0081765D01*
X0066652Y0081616D01*
X0066844Y0081463D01*
X0067032Y0081305D01*
X0067216Y0081143D01*
X0067395Y0080975D01*
X0067571Y0080804D01*
X0067742Y0080628D01*
X0067910Y0080449D01*
X0068072Y0080265D01*
X0068230Y0080077D01*
X0068383Y0079885D01*
X0068532Y0079690D01*
X0068676Y0079491D01*
X0068815Y0079289D01*
X0068949Y0079083D01*
X0069077Y0078874D01*
X0069201Y0078662D01*
X0069319Y0078447D01*
X0069432Y0078229D01*
X0069540Y0078009D01*
X0069642Y0077785D01*
X0069739Y0077560D01*
X0069830Y0077332D01*
X0069915Y0077102D01*
X0069995Y0076870D01*
X0070069Y0076636D01*
X0070138Y0076400D01*
X0070200Y0076163D01*
X0070257Y0075924D01*
X0070308Y0075684D01*
X0070353Y0075443D01*
X0070392Y0075200D01*
X0070425Y0074957D01*
X0070452Y0074713D01*
X0070473Y0074469D01*
X0070488Y0074224D01*
X0070497Y0073978D01*
X0070500Y0073733D01*
X0070497Y0073488D01*
X0070488Y0073242D01*
X0070473Y0072997D01*
X0070452Y0072753D01*
X0070425Y0072509D01*
X0070392Y0072266D01*
X0070353Y0072023D01*
X0070308Y0071782D01*
X0070257Y0071542D01*
X0070200Y0071303D01*
X0070138Y0071066D01*
X0070069Y0070830D01*
X0069995Y0070596D01*
X0069915Y0070364D01*
X0069830Y0070134D01*
X0069739Y0069906D01*
X0069642Y0069681D01*
X0069540Y0069457D01*
X0069432Y0069237D01*
X0069319Y0069019D01*
X0069201Y0068804D01*
X0069077Y0068592D01*
X0068949Y0068383D01*
X0068815Y0068177D01*
X0068676Y0067975D01*
X0068532Y0067776D01*
X0068383Y0067581D01*
X0068230Y0067389D01*
X0068072Y0067201D01*
X0067910Y0067017D01*
X0067742Y0066838D01*
X0067571Y0066662D01*
X0067395Y0066491D01*
X0067216Y0066323D01*
X0067032Y0066161D01*
X0066844Y0066003D01*
X0066652Y0065850D01*
X0066457Y0065701D01*
X0066258Y0065557D01*
X0066056Y0065418D01*
X0065850Y0065284D01*
X0065641Y0065156D01*
X0065429Y0065032D01*
X0065214Y0064914D01*
X0064996Y0064801D01*
X0064776Y0064693D01*
X0064552Y0064591D01*
X0064327Y0064494D01*
X0064099Y0064403D01*
X0063869Y0064318D01*
X0063637Y0064238D01*
X0063403Y0064164D01*
X0063167Y0064095D01*
X0062930Y0064033D01*
X0062691Y0063976D01*
X0062451Y0063925D01*
X0062210Y0063880D01*
X0061967Y0063841D01*
X0061724Y0063808D01*
X0061480Y0063781D01*
X0061236Y0063760D01*
X0060991Y0063745D01*
X0060745Y0063736D01*
X0060500Y0063733D01*
X0060255Y0063736D01*
X0060009Y0063745D01*
X0059764Y0063760D01*
X0059520Y0063781D01*
X0059276Y0063808D01*
X0059033Y0063841D01*
X0058790Y0063880D01*
X0058549Y0063925D01*
X0058309Y0063976D01*
X0058070Y0064033D01*
X0057833Y0064095D01*
X0057597Y0064164D01*
X0057363Y0064238D01*
X0057131Y0064318D01*
X0056901Y0064403D01*
X0056673Y0064494D01*
X0056448Y0064591D01*
X0056224Y0064693D01*
X0056004Y0064801D01*
X0055786Y0064914D01*
X0055571Y0065032D01*
X0055359Y0065156D01*
X0055150Y0065284D01*
X0054944Y0065418D01*
X0054742Y0065557D01*
X0054543Y0065701D01*
X0054348Y0065850D01*
X0054156Y0066003D01*
X0053968Y0066161D01*
X0053784Y0066323D01*
X0053605Y0066491D01*
X0053429Y0066662D01*
X0053258Y0066838D01*
X0053090Y0067017D01*
X0052928Y0067201D01*
X0052770Y0067389D01*
X0052617Y0067581D01*
X0052468Y0067776D01*
X0052324Y0067975D01*
X0052185Y0068177D01*
X0052051Y0068383D01*
X0051923Y0068592D01*
X0051799Y0068804D01*
X0051681Y0069019D01*
X0051568Y0069237D01*
X0051460Y0069457D01*
X0051358Y0069681D01*
X0051261Y0069906D01*
X0051170Y0070134D01*
X0051085Y0070364D01*
X0051005Y0070596D01*
X0050931Y0070830D01*
X0050862Y0071066D01*
X0050800Y0071303D01*
X0050743Y0071542D01*
X0050692Y0071782D01*
X0050647Y0072023D01*
X0050608Y0072266D01*
X0050575Y0072509D01*
X0050548Y0072753D01*
X0050527Y0072997D01*
X0050512Y0073242D01*
X0050503Y0073488D01*
X0050500Y0073733D01*
X0058972Y0087883D02*
X0072751Y0087883D01*
X0072751Y0113473D01*
X0058972Y0113473D01*
X0058972Y0087883D01*
X0048500Y0115733D02*
X0048500Y0190733D01*
D13*
X0071418Y0118788D02*
X0071420Y0118906D01*
X0071426Y0119024D01*
X0071436Y0119142D01*
X0071450Y0119259D01*
X0071468Y0119376D01*
X0071490Y0119492D01*
X0071515Y0119608D01*
X0071545Y0119722D01*
X0071578Y0119835D01*
X0071616Y0119948D01*
X0071657Y0120058D01*
X0071702Y0120168D01*
X0071750Y0120276D01*
X0071802Y0120382D01*
X0071858Y0120486D01*
X0071917Y0120588D01*
X0071979Y0120689D01*
X0072045Y0120787D01*
X0072114Y0120883D01*
X0072187Y0120976D01*
X0072262Y0121067D01*
X0072341Y0121156D01*
X0072422Y0121241D01*
X0072506Y0121324D01*
X0072593Y0121404D01*
X0072683Y0121481D01*
X0072775Y0121555D01*
X0072870Y0121626D01*
X0072967Y0121693D01*
X0073066Y0121757D01*
X0073167Y0121818D01*
X0073271Y0121876D01*
X0073376Y0121929D01*
X0073483Y0121980D01*
X0073592Y0122026D01*
X0073702Y0122069D01*
X0073813Y0122108D01*
X0073926Y0122144D01*
X0074040Y0122175D01*
X0074155Y0122203D01*
X0074271Y0122227D01*
X0074387Y0122247D01*
X0074504Y0122263D01*
X0074622Y0122275D01*
X0074740Y0122283D01*
X0074858Y0122287D01*
X0074976Y0122287D01*
X0075094Y0122283D01*
X0075212Y0122275D01*
X0075330Y0122263D01*
X0075447Y0122247D01*
X0075563Y0122227D01*
X0075679Y0122203D01*
X0075794Y0122175D01*
X0075908Y0122144D01*
X0076021Y0122108D01*
X0076132Y0122069D01*
X0076242Y0122026D01*
X0076351Y0121980D01*
X0076458Y0121929D01*
X0076563Y0121876D01*
X0076666Y0121818D01*
X0076768Y0121757D01*
X0076867Y0121693D01*
X0076964Y0121626D01*
X0077059Y0121555D01*
X0077151Y0121481D01*
X0077241Y0121404D01*
X0077328Y0121324D01*
X0077412Y0121241D01*
X0077493Y0121156D01*
X0077572Y0121067D01*
X0077647Y0120976D01*
X0077720Y0120883D01*
X0077789Y0120787D01*
X0077855Y0120689D01*
X0077917Y0120588D01*
X0077976Y0120486D01*
X0078032Y0120382D01*
X0078084Y0120276D01*
X0078132Y0120168D01*
X0078177Y0120058D01*
X0078218Y0119948D01*
X0078256Y0119835D01*
X0078289Y0119722D01*
X0078319Y0119608D01*
X0078344Y0119492D01*
X0078366Y0119376D01*
X0078384Y0119259D01*
X0078398Y0119142D01*
X0078408Y0119024D01*
X0078414Y0118906D01*
X0078416Y0118788D01*
X0078414Y0118670D01*
X0078408Y0118552D01*
X0078398Y0118434D01*
X0078384Y0118317D01*
X0078366Y0118200D01*
X0078344Y0118084D01*
X0078319Y0117968D01*
X0078289Y0117854D01*
X0078256Y0117741D01*
X0078218Y0117628D01*
X0078177Y0117518D01*
X0078132Y0117408D01*
X0078084Y0117300D01*
X0078032Y0117194D01*
X0077976Y0117090D01*
X0077917Y0116988D01*
X0077855Y0116887D01*
X0077789Y0116789D01*
X0077720Y0116693D01*
X0077647Y0116600D01*
X0077572Y0116509D01*
X0077493Y0116420D01*
X0077412Y0116335D01*
X0077328Y0116252D01*
X0077241Y0116172D01*
X0077151Y0116095D01*
X0077059Y0116021D01*
X0076964Y0115950D01*
X0076867Y0115883D01*
X0076768Y0115819D01*
X0076667Y0115758D01*
X0076563Y0115700D01*
X0076458Y0115647D01*
X0076351Y0115596D01*
X0076242Y0115550D01*
X0076132Y0115507D01*
X0076021Y0115468D01*
X0075908Y0115432D01*
X0075794Y0115401D01*
X0075679Y0115373D01*
X0075563Y0115349D01*
X0075447Y0115329D01*
X0075330Y0115313D01*
X0075212Y0115301D01*
X0075094Y0115293D01*
X0074976Y0115289D01*
X0074858Y0115289D01*
X0074740Y0115293D01*
X0074622Y0115301D01*
X0074504Y0115313D01*
X0074387Y0115329D01*
X0074271Y0115349D01*
X0074155Y0115373D01*
X0074040Y0115401D01*
X0073926Y0115432D01*
X0073813Y0115468D01*
X0073702Y0115507D01*
X0073592Y0115550D01*
X0073483Y0115596D01*
X0073376Y0115647D01*
X0073271Y0115700D01*
X0073167Y0115758D01*
X0073066Y0115819D01*
X0072967Y0115883D01*
X0072870Y0115950D01*
X0072775Y0116021D01*
X0072683Y0116095D01*
X0072593Y0116172D01*
X0072506Y0116252D01*
X0072422Y0116335D01*
X0072341Y0116420D01*
X0072262Y0116509D01*
X0072187Y0116600D01*
X0072114Y0116693D01*
X0072045Y0116789D01*
X0071979Y0116887D01*
X0071917Y0116988D01*
X0071858Y0117090D01*
X0071802Y0117194D01*
X0071750Y0117300D01*
X0071702Y0117408D01*
X0071657Y0117518D01*
X0071616Y0117628D01*
X0071578Y0117741D01*
X0071545Y0117854D01*
X0071515Y0117968D01*
X0071490Y0118084D01*
X0071468Y0118200D01*
X0071450Y0118317D01*
X0071436Y0118434D01*
X0071426Y0118552D01*
X0071420Y0118670D01*
X0071418Y0118788D01*
X0072751Y0113473D02*
X0058972Y0113473D01*
X0058972Y0087883D01*
X0072751Y0087883D01*
X0072751Y0113473D01*
D14*
X0088067Y0099158D02*
X0090429Y0099158D01*
X0090429Y0094434D02*
X0088067Y0094434D01*
X0052181Y0091095D02*
X0049819Y0091095D01*
X0049819Y0086371D02*
X0052181Y0086371D01*
X0074633Y0056976D02*
X0076995Y0056976D01*
X0076995Y0052251D02*
X0074633Y0052251D01*
X0124319Y0095371D02*
X0126681Y0095371D01*
X0126681Y0100095D02*
X0124319Y0100095D01*
X0124319Y0101371D02*
X0126681Y0101371D01*
X0126681Y0106095D02*
X0124319Y0106095D01*
X0124319Y0107371D02*
X0126681Y0107371D01*
X0126681Y0112095D02*
X0124319Y0112095D01*
X0138819Y0117371D02*
X0141181Y0117371D01*
X0141181Y0122095D02*
X0138819Y0122095D01*
D15*
X0136922Y0135234D02*
X0135921Y0135234D01*
X0136922Y0136235D01*
X0136922Y0136485D01*
X0136672Y0136735D01*
X0136171Y0136735D01*
X0135921Y0136485D01*
X0135448Y0136485D02*
X0135448Y0135984D01*
X0135198Y0135734D01*
X0134448Y0135734D01*
X0134948Y0135734D02*
X0135448Y0135234D01*
X0134448Y0135234D02*
X0134448Y0136735D01*
X0135198Y0136735D01*
X0135448Y0136485D01*
X0135488Y0141553D02*
X0134987Y0142053D01*
X0135238Y0142053D02*
X0134487Y0142053D01*
X0134487Y0141553D02*
X0134487Y0143054D01*
X0135238Y0143054D01*
X0135488Y0142804D01*
X0135488Y0142303D01*
X0135238Y0142053D01*
X0135960Y0142303D02*
X0136961Y0142303D01*
X0136711Y0141553D02*
X0136711Y0143054D01*
X0135960Y0142303D01*
X0136132Y0150844D02*
X0135882Y0151094D01*
X0136132Y0150844D02*
X0136632Y0150844D01*
X0136882Y0151094D01*
X0136882Y0151345D01*
X0136632Y0151595D01*
X0136382Y0151595D01*
X0136632Y0151595D02*
X0136882Y0151845D01*
X0136882Y0152095D01*
X0136632Y0152345D01*
X0136132Y0152345D01*
X0135882Y0152095D01*
X0135409Y0152095D02*
X0135409Y0151595D01*
X0135159Y0151345D01*
X0134408Y0151345D01*
X0134909Y0151345D02*
X0135409Y0150844D01*
X0134408Y0150844D02*
X0134408Y0152345D01*
X0135159Y0152345D01*
X0135409Y0152095D01*
X0135395Y0158876D02*
X0135645Y0159126D01*
X0135395Y0158876D02*
X0134895Y0158876D01*
X0134644Y0159126D01*
X0134644Y0160127D01*
X0134895Y0160377D01*
X0135395Y0160377D01*
X0135645Y0160127D01*
X0136118Y0159876D02*
X0136618Y0160377D01*
X0136618Y0158876D01*
X0136118Y0158876D02*
X0137119Y0158876D01*
X0137591Y0159126D02*
X0137841Y0158876D01*
X0138342Y0158876D01*
X0138592Y0159126D01*
X0138592Y0159376D01*
X0138342Y0159626D01*
X0138091Y0159626D01*
X0138342Y0159626D02*
X0138592Y0159876D01*
X0138592Y0160127D01*
X0138342Y0160377D01*
X0137841Y0160377D01*
X0137591Y0160127D01*
X0135580Y0163895D02*
X0135580Y0165397D01*
X0134829Y0164646D01*
X0135830Y0164646D01*
X0134357Y0165146D02*
X0134107Y0165397D01*
X0133606Y0165397D01*
X0133356Y0165146D01*
X0133356Y0164145D01*
X0133606Y0163895D01*
X0134107Y0163895D01*
X0134357Y0164145D01*
X0119942Y0172242D02*
X0119692Y0171992D01*
X0119192Y0171992D01*
X0118941Y0172242D01*
X0118469Y0172242D02*
X0118219Y0171992D01*
X0117718Y0171992D01*
X0117468Y0172242D01*
X0117468Y0173243D01*
X0117718Y0173493D01*
X0118219Y0173493D01*
X0118469Y0173243D01*
X0118941Y0173493D02*
X0118941Y0172743D01*
X0119442Y0172993D01*
X0119692Y0172993D01*
X0119942Y0172743D01*
X0119942Y0172242D01*
X0119942Y0173493D02*
X0118941Y0173493D01*
X0097917Y0179451D02*
X0097666Y0179200D01*
X0096665Y0179200D01*
X0096415Y0179451D01*
X0096415Y0179951D01*
X0096665Y0180201D01*
X0096916Y0180674D02*
X0096415Y0181174D01*
X0097917Y0181174D01*
X0097917Y0180674D02*
X0097917Y0181674D01*
X0097166Y0182147D02*
X0097166Y0183148D01*
X0097917Y0182898D02*
X0096415Y0182898D01*
X0097166Y0182147D01*
X0097666Y0180201D02*
X0097917Y0179951D01*
X0097917Y0179451D01*
X0090043Y0179411D02*
X0089792Y0179161D01*
X0088791Y0179161D01*
X0088541Y0179411D01*
X0088541Y0179912D01*
X0088791Y0180162D01*
X0089042Y0180634D02*
X0088541Y0181135D01*
X0090043Y0181135D01*
X0090043Y0181635D02*
X0090043Y0180634D01*
X0089792Y0180162D02*
X0090043Y0179912D01*
X0090043Y0179411D01*
X0089792Y0182108D02*
X0090043Y0182358D01*
X0090043Y0182858D01*
X0089792Y0183108D01*
X0089292Y0183108D01*
X0089042Y0182858D01*
X0089042Y0182608D01*
X0089292Y0182108D01*
X0088541Y0182108D01*
X0088541Y0183108D01*
X0086135Y0183192D02*
X0084633Y0183192D01*
X0084633Y0182942D02*
X0084633Y0183442D01*
X0085134Y0183924D02*
X0084633Y0184424D01*
X0086135Y0184424D01*
X0086135Y0183924D02*
X0086135Y0184925D01*
X0086135Y0183442D02*
X0086135Y0182942D01*
X0077985Y0176089D02*
X0077735Y0176089D01*
X0076734Y0177090D01*
X0076484Y0177090D01*
X0076484Y0176089D01*
X0076484Y0175116D02*
X0077985Y0175116D01*
X0077985Y0174616D02*
X0077985Y0175617D01*
X0076984Y0174616D02*
X0076484Y0175116D01*
X0076734Y0174144D02*
X0076484Y0173893D01*
X0076484Y0173393D01*
X0076734Y0173143D01*
X0077735Y0173143D01*
X0077985Y0173393D01*
X0077985Y0173893D01*
X0077735Y0174144D01*
X0070898Y0173854D02*
X0070648Y0174104D01*
X0070898Y0173854D02*
X0070898Y0173354D01*
X0070648Y0173103D01*
X0069647Y0173103D01*
X0069397Y0173354D01*
X0069397Y0173854D01*
X0069647Y0174104D01*
X0069898Y0174577D02*
X0069397Y0175077D01*
X0070898Y0175077D01*
X0070898Y0174577D02*
X0070898Y0175578D01*
X0070648Y0176050D02*
X0070898Y0176300D01*
X0070898Y0176801D01*
X0070648Y0177051D01*
X0070398Y0177051D01*
X0070148Y0176801D01*
X0070148Y0176050D01*
X0070648Y0176050D01*
X0070148Y0176050D02*
X0069647Y0176550D01*
X0069397Y0177051D01*
X0059800Y0172560D02*
X0059800Y0172060D01*
X0059550Y0171810D01*
X0059300Y0171810D01*
X0059049Y0172060D01*
X0059049Y0172560D01*
X0059300Y0172811D01*
X0059550Y0172811D01*
X0059800Y0172560D01*
X0059049Y0172560D02*
X0058799Y0172811D01*
X0058549Y0172811D01*
X0058299Y0172560D01*
X0058299Y0172060D01*
X0058549Y0171810D01*
X0058799Y0171810D01*
X0059049Y0172060D01*
X0059800Y0171337D02*
X0059800Y0170337D01*
X0059800Y0170837D02*
X0058299Y0170837D01*
X0058799Y0170337D01*
X0058549Y0169864D02*
X0058299Y0169614D01*
X0058299Y0169114D01*
X0058549Y0168863D01*
X0059550Y0168863D01*
X0059800Y0169114D01*
X0059800Y0169614D01*
X0059550Y0169864D01*
X0066810Y0189191D02*
X0066810Y0190692D01*
X0067560Y0190692D01*
X0067811Y0190442D01*
X0067811Y0189941D01*
X0067560Y0189691D01*
X0066810Y0189691D01*
X0067310Y0189691D02*
X0067811Y0189191D01*
X0068283Y0189441D02*
X0068533Y0189191D01*
X0069034Y0189191D01*
X0069284Y0189441D01*
X0069284Y0189941D01*
X0069034Y0190191D01*
X0068784Y0190191D01*
X0068283Y0189941D01*
X0068283Y0190692D01*
X0069284Y0190692D01*
X0061379Y0146450D02*
X0061629Y0146200D01*
X0061629Y0145950D01*
X0061379Y0145699D01*
X0060878Y0145699D01*
X0060628Y0145950D01*
X0060628Y0146200D01*
X0060878Y0146450D01*
X0061379Y0146450D01*
X0061379Y0145699D02*
X0061629Y0145449D01*
X0061629Y0145199D01*
X0061379Y0144949D01*
X0060878Y0144949D01*
X0060628Y0145199D01*
X0060628Y0145449D01*
X0060878Y0145699D01*
X0060156Y0145199D02*
X0059905Y0144949D01*
X0059405Y0144949D01*
X0059155Y0145199D01*
X0059155Y0146200D01*
X0059405Y0146450D01*
X0059905Y0146450D01*
X0060156Y0146200D01*
X0059945Y0140545D02*
X0059444Y0140545D01*
X0059194Y0140294D01*
X0059194Y0139294D01*
X0059444Y0139043D01*
X0059945Y0139043D01*
X0060195Y0139294D01*
X0060667Y0139294D02*
X0060917Y0139043D01*
X0061418Y0139043D01*
X0061668Y0139294D01*
X0061668Y0140294D01*
X0061418Y0140545D01*
X0060917Y0140545D01*
X0060667Y0140294D01*
X0060667Y0140044D01*
X0060917Y0139794D01*
X0061668Y0139794D01*
X0060195Y0140294D02*
X0059945Y0140545D01*
X0059734Y0134245D02*
X0059734Y0132744D01*
X0060234Y0132744D02*
X0059233Y0132744D01*
X0058761Y0132994D02*
X0058511Y0132744D01*
X0058010Y0132744D01*
X0057760Y0132994D01*
X0057760Y0133995D01*
X0058010Y0134245D01*
X0058511Y0134245D01*
X0058761Y0133995D01*
X0059233Y0133745D02*
X0059734Y0134245D01*
X0060707Y0133995D02*
X0060957Y0134245D01*
X0061457Y0134245D01*
X0061708Y0133995D01*
X0060707Y0132994D01*
X0060957Y0132744D01*
X0061457Y0132744D01*
X0061708Y0132994D01*
X0061708Y0133995D01*
X0060707Y0133995D02*
X0060707Y0132994D01*
X0086720Y0110960D02*
X0088221Y0110960D01*
X0088221Y0111460D02*
X0088221Y0110459D01*
X0088221Y0109987D02*
X0088221Y0108986D01*
X0088221Y0109487D02*
X0086720Y0109487D01*
X0087220Y0108986D01*
X0086970Y0108514D02*
X0086720Y0108264D01*
X0086720Y0107763D01*
X0086970Y0107513D01*
X0087971Y0107513D01*
X0088221Y0107763D01*
X0088221Y0108264D01*
X0087971Y0108514D01*
X0087220Y0110459D02*
X0086720Y0110960D01*
X0101131Y0109249D02*
X0101131Y0108749D01*
X0101381Y0108499D01*
X0101131Y0109249D02*
X0101381Y0109500D01*
X0101631Y0109500D01*
X0102632Y0108499D01*
X0102632Y0109500D01*
X0102632Y0108026D02*
X0102632Y0107026D01*
X0102632Y0107526D02*
X0101131Y0107526D01*
X0101631Y0107026D01*
X0101381Y0106553D02*
X0101131Y0106303D01*
X0101131Y0105802D01*
X0101381Y0105552D01*
X0102382Y0105552D01*
X0102632Y0105802D01*
X0102632Y0106303D01*
X0102382Y0106553D01*
X0079595Y0084699D02*
X0079595Y0084345D01*
X0079241Y0083991D01*
X0078887Y0083991D01*
X0078887Y0085406D01*
X0079595Y0084699D01*
X0078887Y0085406D02*
X0078533Y0085406D01*
X0078179Y0085053D01*
X0078179Y0084699D01*
X0078887Y0083991D01*
X0078730Y0083480D02*
X0078022Y0082772D01*
X0077688Y0082438D02*
X0076981Y0082438D01*
X0077158Y0082615D02*
X0076627Y0082084D01*
X0076981Y0081731D02*
X0075919Y0082792D01*
X0076450Y0083323D01*
X0076804Y0083323D01*
X0077157Y0082969D01*
X0077158Y0082615D01*
X0077315Y0083480D02*
X0077315Y0084188D01*
X0078376Y0083126D01*
X0081049Y0068311D02*
X0081049Y0067310D01*
X0080299Y0068060D01*
X0081800Y0068060D01*
X0081550Y0066837D02*
X0080549Y0066837D01*
X0080299Y0066587D01*
X0080299Y0065837D01*
X0081800Y0065837D01*
X0081800Y0066587D01*
X0081550Y0066837D01*
X0081800Y0065364D02*
X0081800Y0064363D01*
X0080299Y0064363D01*
X0080299Y0065364D01*
X0081049Y0064864D02*
X0081049Y0064363D01*
X0081800Y0063891D02*
X0081800Y0062890D01*
X0080299Y0062890D01*
X0057200Y0070783D02*
X0055699Y0070783D01*
X0055699Y0071534D01*
X0055949Y0071784D01*
X0056449Y0071784D01*
X0056700Y0071534D01*
X0056700Y0070783D01*
X0056700Y0071283D02*
X0057200Y0071784D01*
X0057200Y0072256D02*
X0057200Y0073257D01*
X0057200Y0073730D02*
X0057200Y0074730D01*
X0057200Y0074230D02*
X0055699Y0074230D01*
X0056199Y0073730D01*
X0055699Y0072757D02*
X0057200Y0072757D01*
X0056199Y0072256D02*
X0055699Y0072757D01*
X0194280Y0073433D02*
X0194280Y0074934D01*
X0195031Y0074934D01*
X0195281Y0074684D01*
X0195281Y0074184D01*
X0195031Y0073933D01*
X0194280Y0073933D01*
X0194781Y0073933D02*
X0195281Y0073433D01*
X0195753Y0073433D02*
X0196754Y0073433D01*
X0196254Y0073433D02*
X0196254Y0074934D01*
X0195753Y0074434D01*
X0197227Y0074184D02*
X0198228Y0074184D01*
X0197977Y0074934D02*
X0197977Y0073433D01*
X0197227Y0074184D02*
X0197977Y0074934D01*
X0198128Y0081833D02*
X0197127Y0081833D01*
X0198128Y0082834D01*
X0198128Y0083084D01*
X0197877Y0083334D01*
X0197377Y0083334D01*
X0197127Y0083084D01*
X0196154Y0083334D02*
X0196154Y0081833D01*
X0196654Y0081833D02*
X0195653Y0081833D01*
X0195181Y0081833D02*
X0194681Y0082333D01*
X0194931Y0082333D02*
X0194180Y0082333D01*
X0194180Y0081833D02*
X0194180Y0083334D01*
X0194931Y0083334D01*
X0195181Y0083084D01*
X0195181Y0082584D01*
X0194931Y0082333D01*
X0195653Y0082834D02*
X0196154Y0083334D01*
X0214480Y0127083D02*
X0214480Y0128584D01*
X0215231Y0128584D01*
X0215481Y0128334D01*
X0215481Y0127834D01*
X0215231Y0127583D01*
X0214480Y0127583D01*
X0214981Y0127583D02*
X0215481Y0127083D01*
X0215953Y0127083D02*
X0216954Y0127083D01*
X0216454Y0127083D02*
X0216454Y0128584D01*
X0215953Y0128084D01*
X0217427Y0128334D02*
X0217677Y0128584D01*
X0218177Y0128584D01*
X0218428Y0128334D01*
X0218428Y0128084D01*
X0218177Y0127834D01*
X0218428Y0127583D01*
X0218428Y0127333D01*
X0218177Y0127083D01*
X0217677Y0127083D01*
X0217427Y0127333D01*
X0217927Y0127834D02*
X0218177Y0127834D01*
X0201624Y0134633D02*
X0201624Y0134883D01*
X0201374Y0135134D01*
X0200623Y0135134D01*
X0200623Y0134633D01*
X0200873Y0134383D01*
X0201374Y0134383D01*
X0201624Y0134633D01*
X0201124Y0135634D02*
X0200623Y0135134D01*
X0200151Y0135134D02*
X0199901Y0134883D01*
X0199150Y0134883D01*
X0199150Y0134383D02*
X0199150Y0135884D01*
X0199901Y0135884D01*
X0200151Y0135634D01*
X0200151Y0135134D01*
X0199650Y0134883D02*
X0200151Y0134383D01*
X0201124Y0135634D02*
X0201624Y0135884D01*
D16*
X0119758Y0047086D02*
X0119758Y0043817D01*
X0118124Y0045452D02*
X0121393Y0045452D01*
D17*
X0050500Y0073733D02*
X0050503Y0073978D01*
X0050512Y0074224D01*
X0050527Y0074469D01*
X0050548Y0074713D01*
X0050575Y0074957D01*
X0050608Y0075200D01*
X0050647Y0075443D01*
X0050692Y0075684D01*
X0050743Y0075924D01*
X0050800Y0076163D01*
X0050862Y0076400D01*
X0050931Y0076636D01*
X0051005Y0076870D01*
X0051085Y0077102D01*
X0051170Y0077332D01*
X0051261Y0077560D01*
X0051358Y0077785D01*
X0051460Y0078009D01*
X0051568Y0078229D01*
X0051681Y0078447D01*
X0051799Y0078662D01*
X0051923Y0078874D01*
X0052051Y0079083D01*
X0052185Y0079289D01*
X0052324Y0079491D01*
X0052468Y0079690D01*
X0052617Y0079885D01*
X0052770Y0080077D01*
X0052928Y0080265D01*
X0053090Y0080449D01*
X0053258Y0080628D01*
X0053429Y0080804D01*
X0053605Y0080975D01*
X0053784Y0081143D01*
X0053968Y0081305D01*
X0054156Y0081463D01*
X0054348Y0081616D01*
X0054543Y0081765D01*
X0054742Y0081909D01*
X0054944Y0082048D01*
X0055150Y0082182D01*
X0055359Y0082310D01*
X0055571Y0082434D01*
X0055786Y0082552D01*
X0056004Y0082665D01*
X0056224Y0082773D01*
X0056448Y0082875D01*
X0056673Y0082972D01*
X0056901Y0083063D01*
X0057131Y0083148D01*
X0057363Y0083228D01*
X0057597Y0083302D01*
X0057833Y0083371D01*
X0058070Y0083433D01*
X0058309Y0083490D01*
X0058549Y0083541D01*
X0058790Y0083586D01*
X0059033Y0083625D01*
X0059276Y0083658D01*
X0059520Y0083685D01*
X0059764Y0083706D01*
X0060009Y0083721D01*
X0060255Y0083730D01*
X0060500Y0083733D01*
X0060745Y0083730D01*
X0060991Y0083721D01*
X0061236Y0083706D01*
X0061480Y0083685D01*
X0061724Y0083658D01*
X0061967Y0083625D01*
X0062210Y0083586D01*
X0062451Y0083541D01*
X0062691Y0083490D01*
X0062930Y0083433D01*
X0063167Y0083371D01*
X0063403Y0083302D01*
X0063637Y0083228D01*
X0063869Y0083148D01*
X0064099Y0083063D01*
X0064327Y0082972D01*
X0064552Y0082875D01*
X0064776Y0082773D01*
X0064996Y0082665D01*
X0065214Y0082552D01*
X0065429Y0082434D01*
X0065641Y0082310D01*
X0065850Y0082182D01*
X0066056Y0082048D01*
X0066258Y0081909D01*
X0066457Y0081765D01*
X0066652Y0081616D01*
X0066844Y0081463D01*
X0067032Y0081305D01*
X0067216Y0081143D01*
X0067395Y0080975D01*
X0067571Y0080804D01*
X0067742Y0080628D01*
X0067910Y0080449D01*
X0068072Y0080265D01*
X0068230Y0080077D01*
X0068383Y0079885D01*
X0068532Y0079690D01*
X0068676Y0079491D01*
X0068815Y0079289D01*
X0068949Y0079083D01*
X0069077Y0078874D01*
X0069201Y0078662D01*
X0069319Y0078447D01*
X0069432Y0078229D01*
X0069540Y0078009D01*
X0069642Y0077785D01*
X0069739Y0077560D01*
X0069830Y0077332D01*
X0069915Y0077102D01*
X0069995Y0076870D01*
X0070069Y0076636D01*
X0070138Y0076400D01*
X0070200Y0076163D01*
X0070257Y0075924D01*
X0070308Y0075684D01*
X0070353Y0075443D01*
X0070392Y0075200D01*
X0070425Y0074957D01*
X0070452Y0074713D01*
X0070473Y0074469D01*
X0070488Y0074224D01*
X0070497Y0073978D01*
X0070500Y0073733D01*
X0070497Y0073488D01*
X0070488Y0073242D01*
X0070473Y0072997D01*
X0070452Y0072753D01*
X0070425Y0072509D01*
X0070392Y0072266D01*
X0070353Y0072023D01*
X0070308Y0071782D01*
X0070257Y0071542D01*
X0070200Y0071303D01*
X0070138Y0071066D01*
X0070069Y0070830D01*
X0069995Y0070596D01*
X0069915Y0070364D01*
X0069830Y0070134D01*
X0069739Y0069906D01*
X0069642Y0069681D01*
X0069540Y0069457D01*
X0069432Y0069237D01*
X0069319Y0069019D01*
X0069201Y0068804D01*
X0069077Y0068592D01*
X0068949Y0068383D01*
X0068815Y0068177D01*
X0068676Y0067975D01*
X0068532Y0067776D01*
X0068383Y0067581D01*
X0068230Y0067389D01*
X0068072Y0067201D01*
X0067910Y0067017D01*
X0067742Y0066838D01*
X0067571Y0066662D01*
X0067395Y0066491D01*
X0067216Y0066323D01*
X0067032Y0066161D01*
X0066844Y0066003D01*
X0066652Y0065850D01*
X0066457Y0065701D01*
X0066258Y0065557D01*
X0066056Y0065418D01*
X0065850Y0065284D01*
X0065641Y0065156D01*
X0065429Y0065032D01*
X0065214Y0064914D01*
X0064996Y0064801D01*
X0064776Y0064693D01*
X0064552Y0064591D01*
X0064327Y0064494D01*
X0064099Y0064403D01*
X0063869Y0064318D01*
X0063637Y0064238D01*
X0063403Y0064164D01*
X0063167Y0064095D01*
X0062930Y0064033D01*
X0062691Y0063976D01*
X0062451Y0063925D01*
X0062210Y0063880D01*
X0061967Y0063841D01*
X0061724Y0063808D01*
X0061480Y0063781D01*
X0061236Y0063760D01*
X0060991Y0063745D01*
X0060745Y0063736D01*
X0060500Y0063733D01*
X0060255Y0063736D01*
X0060009Y0063745D01*
X0059764Y0063760D01*
X0059520Y0063781D01*
X0059276Y0063808D01*
X0059033Y0063841D01*
X0058790Y0063880D01*
X0058549Y0063925D01*
X0058309Y0063976D01*
X0058070Y0064033D01*
X0057833Y0064095D01*
X0057597Y0064164D01*
X0057363Y0064238D01*
X0057131Y0064318D01*
X0056901Y0064403D01*
X0056673Y0064494D01*
X0056448Y0064591D01*
X0056224Y0064693D01*
X0056004Y0064801D01*
X0055786Y0064914D01*
X0055571Y0065032D01*
X0055359Y0065156D01*
X0055150Y0065284D01*
X0054944Y0065418D01*
X0054742Y0065557D01*
X0054543Y0065701D01*
X0054348Y0065850D01*
X0054156Y0066003D01*
X0053968Y0066161D01*
X0053784Y0066323D01*
X0053605Y0066491D01*
X0053429Y0066662D01*
X0053258Y0066838D01*
X0053090Y0067017D01*
X0052928Y0067201D01*
X0052770Y0067389D01*
X0052617Y0067581D01*
X0052468Y0067776D01*
X0052324Y0067975D01*
X0052185Y0068177D01*
X0052051Y0068383D01*
X0051923Y0068592D01*
X0051799Y0068804D01*
X0051681Y0069019D01*
X0051568Y0069237D01*
X0051460Y0069457D01*
X0051358Y0069681D01*
X0051261Y0069906D01*
X0051170Y0070134D01*
X0051085Y0070364D01*
X0051005Y0070596D01*
X0050931Y0070830D01*
X0050862Y0071066D01*
X0050800Y0071303D01*
X0050743Y0071542D01*
X0050692Y0071782D01*
X0050647Y0072023D01*
X0050608Y0072266D01*
X0050575Y0072509D01*
X0050548Y0072753D01*
X0050527Y0072997D01*
X0050512Y0073242D01*
X0050503Y0073488D01*
X0050500Y0073733D01*
X0148500Y0147233D02*
X0148503Y0147478D01*
X0148512Y0147724D01*
X0148527Y0147969D01*
X0148548Y0148213D01*
X0148575Y0148457D01*
X0148608Y0148700D01*
X0148647Y0148943D01*
X0148692Y0149184D01*
X0148743Y0149424D01*
X0148800Y0149663D01*
X0148862Y0149900D01*
X0148931Y0150136D01*
X0149005Y0150370D01*
X0149085Y0150602D01*
X0149170Y0150832D01*
X0149261Y0151060D01*
X0149358Y0151285D01*
X0149460Y0151509D01*
X0149568Y0151729D01*
X0149681Y0151947D01*
X0149799Y0152162D01*
X0149923Y0152374D01*
X0150051Y0152583D01*
X0150185Y0152789D01*
X0150324Y0152991D01*
X0150468Y0153190D01*
X0150617Y0153385D01*
X0150770Y0153577D01*
X0150928Y0153765D01*
X0151090Y0153949D01*
X0151258Y0154128D01*
X0151429Y0154304D01*
X0151605Y0154475D01*
X0151784Y0154643D01*
X0151968Y0154805D01*
X0152156Y0154963D01*
X0152348Y0155116D01*
X0152543Y0155265D01*
X0152742Y0155409D01*
X0152944Y0155548D01*
X0153150Y0155682D01*
X0153359Y0155810D01*
X0153571Y0155934D01*
X0153786Y0156052D01*
X0154004Y0156165D01*
X0154224Y0156273D01*
X0154448Y0156375D01*
X0154673Y0156472D01*
X0154901Y0156563D01*
X0155131Y0156648D01*
X0155363Y0156728D01*
X0155597Y0156802D01*
X0155833Y0156871D01*
X0156070Y0156933D01*
X0156309Y0156990D01*
X0156549Y0157041D01*
X0156790Y0157086D01*
X0157033Y0157125D01*
X0157276Y0157158D01*
X0157520Y0157185D01*
X0157764Y0157206D01*
X0158009Y0157221D01*
X0158255Y0157230D01*
X0158500Y0157233D01*
X0158745Y0157230D01*
X0158991Y0157221D01*
X0159236Y0157206D01*
X0159480Y0157185D01*
X0159724Y0157158D01*
X0159967Y0157125D01*
X0160210Y0157086D01*
X0160451Y0157041D01*
X0160691Y0156990D01*
X0160930Y0156933D01*
X0161167Y0156871D01*
X0161403Y0156802D01*
X0161637Y0156728D01*
X0161869Y0156648D01*
X0162099Y0156563D01*
X0162327Y0156472D01*
X0162552Y0156375D01*
X0162776Y0156273D01*
X0162996Y0156165D01*
X0163214Y0156052D01*
X0163429Y0155934D01*
X0163641Y0155810D01*
X0163850Y0155682D01*
X0164056Y0155548D01*
X0164258Y0155409D01*
X0164457Y0155265D01*
X0164652Y0155116D01*
X0164844Y0154963D01*
X0165032Y0154805D01*
X0165216Y0154643D01*
X0165395Y0154475D01*
X0165571Y0154304D01*
X0165742Y0154128D01*
X0165910Y0153949D01*
X0166072Y0153765D01*
X0166230Y0153577D01*
X0166383Y0153385D01*
X0166532Y0153190D01*
X0166676Y0152991D01*
X0166815Y0152789D01*
X0166949Y0152583D01*
X0167077Y0152374D01*
X0167201Y0152162D01*
X0167319Y0151947D01*
X0167432Y0151729D01*
X0167540Y0151509D01*
X0167642Y0151285D01*
X0167739Y0151060D01*
X0167830Y0150832D01*
X0167915Y0150602D01*
X0167995Y0150370D01*
X0168069Y0150136D01*
X0168138Y0149900D01*
X0168200Y0149663D01*
X0168257Y0149424D01*
X0168308Y0149184D01*
X0168353Y0148943D01*
X0168392Y0148700D01*
X0168425Y0148457D01*
X0168452Y0148213D01*
X0168473Y0147969D01*
X0168488Y0147724D01*
X0168497Y0147478D01*
X0168500Y0147233D01*
X0168497Y0146988D01*
X0168488Y0146742D01*
X0168473Y0146497D01*
X0168452Y0146253D01*
X0168425Y0146009D01*
X0168392Y0145766D01*
X0168353Y0145523D01*
X0168308Y0145282D01*
X0168257Y0145042D01*
X0168200Y0144803D01*
X0168138Y0144566D01*
X0168069Y0144330D01*
X0167995Y0144096D01*
X0167915Y0143864D01*
X0167830Y0143634D01*
X0167739Y0143406D01*
X0167642Y0143181D01*
X0167540Y0142957D01*
X0167432Y0142737D01*
X0167319Y0142519D01*
X0167201Y0142304D01*
X0167077Y0142092D01*
X0166949Y0141883D01*
X0166815Y0141677D01*
X0166676Y0141475D01*
X0166532Y0141276D01*
X0166383Y0141081D01*
X0166230Y0140889D01*
X0166072Y0140701D01*
X0165910Y0140517D01*
X0165742Y0140338D01*
X0165571Y0140162D01*
X0165395Y0139991D01*
X0165216Y0139823D01*
X0165032Y0139661D01*
X0164844Y0139503D01*
X0164652Y0139350D01*
X0164457Y0139201D01*
X0164258Y0139057D01*
X0164056Y0138918D01*
X0163850Y0138784D01*
X0163641Y0138656D01*
X0163429Y0138532D01*
X0163214Y0138414D01*
X0162996Y0138301D01*
X0162776Y0138193D01*
X0162552Y0138091D01*
X0162327Y0137994D01*
X0162099Y0137903D01*
X0161869Y0137818D01*
X0161637Y0137738D01*
X0161403Y0137664D01*
X0161167Y0137595D01*
X0160930Y0137533D01*
X0160691Y0137476D01*
X0160451Y0137425D01*
X0160210Y0137380D01*
X0159967Y0137341D01*
X0159724Y0137308D01*
X0159480Y0137281D01*
X0159236Y0137260D01*
X0158991Y0137245D01*
X0158745Y0137236D01*
X0158500Y0137233D01*
X0158255Y0137236D01*
X0158009Y0137245D01*
X0157764Y0137260D01*
X0157520Y0137281D01*
X0157276Y0137308D01*
X0157033Y0137341D01*
X0156790Y0137380D01*
X0156549Y0137425D01*
X0156309Y0137476D01*
X0156070Y0137533D01*
X0155833Y0137595D01*
X0155597Y0137664D01*
X0155363Y0137738D01*
X0155131Y0137818D01*
X0154901Y0137903D01*
X0154673Y0137994D01*
X0154448Y0138091D01*
X0154224Y0138193D01*
X0154004Y0138301D01*
X0153786Y0138414D01*
X0153571Y0138532D01*
X0153359Y0138656D01*
X0153150Y0138784D01*
X0152944Y0138918D01*
X0152742Y0139057D01*
X0152543Y0139201D01*
X0152348Y0139350D01*
X0152156Y0139503D01*
X0151968Y0139661D01*
X0151784Y0139823D01*
X0151605Y0139991D01*
X0151429Y0140162D01*
X0151258Y0140338D01*
X0151090Y0140517D01*
X0150928Y0140701D01*
X0150770Y0140889D01*
X0150617Y0141081D01*
X0150468Y0141276D01*
X0150324Y0141475D01*
X0150185Y0141677D01*
X0150051Y0141883D01*
X0149923Y0142092D01*
X0149799Y0142304D01*
X0149681Y0142519D01*
X0149568Y0142737D01*
X0149460Y0142957D01*
X0149358Y0143181D01*
X0149261Y0143406D01*
X0149170Y0143634D01*
X0149085Y0143864D01*
X0149005Y0144096D01*
X0148931Y0144330D01*
X0148862Y0144566D01*
X0148800Y0144803D01*
X0148743Y0145042D01*
X0148692Y0145282D01*
X0148647Y0145523D01*
X0148608Y0145766D01*
X0148575Y0146009D01*
X0148548Y0146253D01*
X0148527Y0146497D01*
X0148512Y0146742D01*
X0148503Y0146988D01*
X0148500Y0147233D01*
D18*
X0138169Y0111544D02*
X0138169Y0109733D01*
X0136949Y0110654D01*
X0138169Y0109733D02*
X0138169Y0107922D01*
X0136949Y0108873D02*
X0138109Y0109633D01*
X0138169Y0105544D02*
X0138169Y0103733D01*
X0136949Y0104654D01*
X0138169Y0103733D02*
X0138169Y0101922D01*
X0136949Y0102873D02*
X0138109Y0103633D01*
X0138169Y0099544D02*
X0138169Y0097733D01*
X0136949Y0098654D01*
X0138169Y0097733D02*
X0138169Y0095922D01*
X0136949Y0096873D02*
X0138109Y0097633D01*
M02*
