%
M48
M72
T01C0.01300
T02C0.01969
T03C0.02362
T04C0.04000
T05C0.06299
T06C0.07087
T07C0.11811
%
T01
X48150Y81083
X61150Y91133
X66200Y88433
X70300Y96683
X86400Y101533
X100300Y97933
X102700Y91433
X88100Y89433
X75500Y114533
X80000Y129233
X81500Y137433
X88800Y137533
X91150Y134533
X91100Y128083
X99700Y129233
X105000Y128233
X112500Y130233
X113000Y134733
X119400Y127083
X124500Y128233
X123900Y133233
X123800Y138433
X123500Y147233
X111500Y150233
X108600Y144033
X123900Y158233
X137500Y142933
X145000Y145233
X148500Y148233
X147400Y153233
X160500Y158733
X171500Y142233
X171600Y137833
X172400Y133733
X172800Y129133
X156500Y123233
X152650Y126983
X150100Y119433
X146400Y115233
X135000Y113733
X132900Y124233
X138000Y126733
X142000Y126733
X159400Y109233
X144200Y104733
X138000Y88933
X133400Y87533
X128500Y79133
X153300Y69233
X154600Y56533
X160400Y43233
X145900Y43333
X175900Y44083
X185800Y57133
X182000Y59433
X180200Y83033
X168300Y90133
X181000Y108433
X101200Y159433
X86000Y153733
X81900Y158333
X67500Y154633
X61500Y157733
X59800Y170633
X60000Y175233
X82500Y173733
X90500Y173733
X96000Y174733
X98500Y172233
X106800Y176333
X110100Y173733
X81650Y143483
X68150Y141483
X61150Y133233
T02
X48500Y133233
X48500Y128233
X48500Y138233
X48500Y143233
X48500Y148233
X48500Y153233
X48500Y158233
X48500Y163233
X48500Y168233
X48500Y173233
X48500Y178233
T03
X190350Y95083
X205400Y109633
X190200Y46083
X91050Y42383
X71150Y61783
T04
X50500Y42833
X60500Y41833
X70500Y42833
X70500Y73733
X50500Y73733
X151429Y140162
X165571Y154304
X180100Y151633
X190100Y151633
X190100Y141633
X180100Y141633
X180100Y161633
X190100Y161633
X167467Y170894
X157467Y170894
X147467Y170894
X147467Y180894
X157467Y180894
X167467Y180894
X204450Y62583
X203450Y52583
X204450Y42583
X221550Y42833
X220550Y52833
X221550Y62833
T05
X105587Y45250
T06
X105587Y62966
T07
X185232Y177465
M30
